<svg width="150" height="150" viewBox="0 0 150 150" fill="none" xmlns="http://www.w3.org/2000/svg">
<path d="M123.612 137.469V115.281C123.612 107.337 125.693 103.206 129.78 96.3C134.763 87.8633 137.426 78.2588 137.498 68.4608C137.571 58.6627 135.05 49.0198 130.193 40.5104C125.335 32.001 118.313 24.9278 109.839 20.0085C101.365 15.0892 91.7411 12.4987 81.9428 12.5C67.2111 12.5017 53.083 18.3537 42.6649 28.7695C32.2468 39.1852 26.3915 53.312 26.3866 68.0438C26.3866 71.6688 26.3866 73.4812 26.2366 74.4937C25.8741 76.9187 24.7366 79.0063 23.6303 81.1688L12.4991 102.756L21.2491 107.131C23.7803 108.394 25.0491 109.025 25.9303 110.194C26.8116 111.363 27.0616 112.688 27.5553 115.319L27.6053 115.581C28.7491 121.631 30.0053 128.306 33.5428 132.519C34.7928 134 36.3428 135.206 38.0866 136.063C40.9678 137.469 44.5116 137.469 51.5991 137.469C54.8803 137.469 58.1678 137.544 61.4491 137.469C69.2178 137.275 74.9991 130.737 74.9991 123.156" stroke="#D9D9D9" stroke-opacity="0.5" stroke-width="8" stroke-linecap="round" stroke-linejoin="round"/>
<path d="M60.0724 65.8252C62.7349 65.8252 65.1662 64.8127 67.0099 63.1564M60.0724 65.8252C60.0724 72.9877 64.2224 79.7877 72.2099 79.7877C80.1974 79.7877 84.3474 86.5877 84.3474 93.7502M60.0724 65.8252C46.6349 65.8252 46.6349 44.8815 60.0724 44.8815C61.2974 44.8856 62.4578 45.0835 63.5537 45.4752C62.8974 29.8627 85.4037 25.6252 90.5037 40.2502M90.5037 40.2502C86.7849 42.7564 84.3474 47.0189 84.3474 51.8564M90.5037 40.2502C102.079 32.4377 117.504 46.4564 110.166 58.9564C122.479 60.8002 121.166 79.7877 108.622 79.7877C106.95 79.787 105.302 79.382 103.82 78.6072C102.338 77.8323 101.065 76.7106 100.11 75.3377" stroke="#82CBFF" stroke-width="8" stroke-linecap="round" stroke-linejoin="round"/>
</svg>
