<svg width="235" height="213" viewBox="0 0 235 213" fill="none" xmlns="http://www.w3.org/2000/svg">
<path d="M164.613 137.469V115.281C164.613 107.337 166.694 103.206 170.781 96.3C175.764 87.8633 178.427 78.2588 178.499 68.4608C178.572 58.6627 176.051 49.0198 171.194 40.5104C166.336 32.001 159.314 24.9278 150.84 20.0085C142.366 15.0892 132.742 12.4987 122.944 12.5C108.212 12.5017 94.0839 18.3537 83.6658 28.7695C73.2477 39.1852 67.3925 53.312 67.3875 68.0438C67.3875 71.6688 67.3875 73.4812 67.2375 74.4937C66.875 76.9187 65.7375 79.0063 64.6313 81.1688L53.5 102.756L62.25 107.131C64.7813 108.394 66.05 109.025 66.9313 110.194C67.8125 111.363 68.0625 112.688 68.5563 115.319L68.6063 115.581C69.75 121.631 71.0063 128.306 74.5438 132.519C75.7938 134 77.3438 135.206 79.0876 136.063C81.9688 137.469 85.5126 137.469 92.6 137.469C95.8813 137.469 99.1688 137.544 102.45 137.469C110.219 137.275 116 130.737 116 123.156" stroke="#D9D9D9" stroke-opacity="0.5" stroke-width="8" stroke-linecap="round" stroke-linejoin="round"/>
<path d="M101.075 65.825C103.738 65.825 106.169 64.8125 108.013 63.1562M101.075 65.825C101.075 72.9875 105.225 79.7875 113.213 79.7875C121.2 79.7875 125.35 86.5874 125.35 93.7499M101.075 65.825C87.6376 65.825 87.6376 44.8812 101.075 44.8812C102.3 44.8854 103.461 45.0833 104.556 45.475C103.9 29.8625 126.406 25.625 131.506 40.25M131.506 40.25C127.788 42.7562 125.35 47.0187 125.35 51.8562M131.506 40.25C143.081 32.4375 158.506 46.4562 151.169 58.9562C163.481 60.8 162.169 79.7875 149.625 79.7875C147.953 79.7868 146.305 79.3818 144.823 78.6069C143.341 77.8321 142.068 76.7104 141.113 75.3375" stroke="#82CBFF" stroke-width="8" stroke-linecap="round" stroke-linejoin="round"/>
</svg>
