<svg width="254" height="202" viewBox="0 0 254 202" fill="none" xmlns="http://www.w3.org/2000/svg">
<path d="M94.5 126.828C111.768 123.858 120.524 110.34 123.429 97.9058C126.085 86.5405 122.982 82.278 116.61 82.2783C111.83 82.2783 109.09 85.1366 109.09 89.7248C109.09 99.5317 124.491 99.5323 131.927 99.5323M169.425 126.828C152.759 123.962 144.022 111.27 140.821 99.2104M140.821 99.2104C140.705 98.7746 140.597 98.3395 140.496 97.9058C137.84 86.5405 140.943 82.278 147.315 82.2783C152.095 82.2783 154.835 85.1366 154.835 89.7248C154.835 96.3924 147.716 98.527 140.821 99.2104ZM140.821 99.2104C137.575 99.5322 134.379 99.5323 131.998 99.5323" stroke="#D9D9D9" stroke-width="5.4" stroke-linecap="round"/>
<path d="M80.9979 126.828C73.2372 118.39 57.513 103.878 59.7367 70.8036C62.437 30.6411 94.8361 -0.071936 140.736 3.30356M183.599 126.153C190.349 119.403 202.366 108.13 204.526 76.5399C207.179 37.7279 173.137 10.7279 153.562 6.00293" stroke="#D9D9D9" stroke-width="5.4" stroke-linecap="round"/>
<circle cx="178.875" cy="43.8027" r="6.4125" fill="#00A2FF" stroke="#D9D9D9" stroke-width="0.675"/>
<path d="M131.287 198.379C112.493 198.379 107.481 183.529 107.324 176.104L118.462 178.129H130.817H143.437L155.249 176.104C155.09 183.529 149.979 198.379 130.817 198.379" stroke="#D9D9D9" stroke-width="5.4"/>
<path d="M131.895 141.003C131.895 141.003 118.516 140.577 109.96 139.988C103.757 139.562 97.5021 137.06 93.79 135.711C92.062 135.082 89.74 134.023 87.3775 133.348C85.015 132.674 82.5127 132.668 80.9692 134.019C77.4877 137.255 78.1448 142.346 78.9085 144.486C79.5534 146.421 81.0192 147.315 82.0494 148.536M132.269 178.232C127.657 178.119 116.947 177.692 111.007 176.882C103.582 175.869 102.569 173.844 101.219 172.832C99.8694 171.819 97.8444 168.782 96.8319 165.069C96.7194 164.657 96.5811 164.286 96.4199 163.953M82.0494 148.536C82.4568 149.019 82.7961 149.554 82.9895 150.224C83.1612 150.819 83.9697 152.924 84.6447 154.949C85.3197 156.974 87.0072 159.674 89.7444 160.344C92.3831 160.99 95.1308 161.288 96.4199 163.953M82.0494 148.536C95.5133 154.949 114.413 156.528 131.895 156.528M96.4199 163.953C100.797 165.416 114.02 168.341 131.895 168.341M131.325 141.003C131.325 141.003 144.704 140.577 153.26 139.988C159.463 139.562 165.718 137.06 169.43 135.711C171.158 135.082 173.48 134.023 175.842 133.348C178.205 132.674 180.707 132.668 182.251 134.019C185.732 137.255 185.075 142.346 184.311 144.486C183.667 146.421 182.201 147.315 181.171 148.536M130.951 178.232C135.563 178.119 146.273 177.692 152.213 176.882C159.638 175.869 160.651 173.844 162.001 172.832C163.351 171.819 165.376 168.782 166.388 165.069C166.501 164.657 166.639 164.286 166.8 163.953M181.171 148.536C180.763 149.019 180.424 149.554 180.23 150.224C180.059 150.819 179.25 152.924 178.575 154.949C177.9 156.974 176.213 159.674 173.476 160.344C170.837 160.99 168.089 161.288 166.8 163.953M181.171 148.536C167.707 154.949 148.807 156.528 131.325 156.528M166.8 163.953C162.423 165.416 149.2 168.341 131.325 168.341" stroke="#D9D9D9" stroke-width="5.4" stroke-linejoin="round"/>
<path d="M24.3911 110.133C31.5615 104.8 38.024 102.546 42.861 101.851C43.6672 101.735 45.4545 100.91 46.1539 98.5329C47.0282 95.5618 47.9204 88.5297 48.1823 85.8331C48.4442 83.1366 48.1869 78.4621 43.4432 76.9048C39.6482 75.659 36.3712 78.3566 35.207 79.8612C32.9067 77.3556 31.5524 75.2546 28.061 73.2094C20.5794 68.8269 9.14538 74.2306 6.52256 83.1441C3.89973 92.0575 9.55337 102.104 12.8575 106.556C19.0637 114.919 22.3609 111.643 24.3911 110.133Z" stroke="#D9D9D9" stroke-width="5.4" stroke-linejoin="round"/>
<path d="M205.916 136.683C214.41 133.908 219.982 129.933 223.343 126.386C223.903 125.794 225.609 124.812 227.953 125.613C230.884 126.615 237.14 129.947 239.493 131.29C241.846 132.633 245.514 135.542 244.046 140.315C242.872 144.132 238.777 145.25 236.877 145.332C237.594 148.657 238.528 150.976 238.181 155.007C237.439 163.646 226.426 169.861 217.634 166.856C208.842 163.851 203.904 153.434 202.177 148.165C198.933 138.27 203.511 137.469 205.916 136.683Z" stroke="#D9D9D9" stroke-width="5.4" stroke-linejoin="round"/>
</svg>
