<svg width="90" height="90" viewBox="0 0 90 90" fill="none" xmlns="http://www.w3.org/2000/svg">
<path d="M32.5234 53.2602C38.2796 52.2702 41.1981 47.7641 42.1665 43.6193C43.0517 39.8309 42.0176 38.41 39.8933 38.4102C38.3 38.4102 37.3868 39.3629 37.3868 40.8923C37.3868 44.1613 42.5206 44.1615 44.999 44.1615M57.4984 53.2602C51.9431 52.3047 49.0308 48.0742 47.9638 44.0542M47.9638 44.0542C47.9253 43.9089 47.8891 43.7639 47.8553 43.6193C46.9702 39.8309 48.0043 38.41 50.1286 38.4102C51.7218 38.4102 52.6351 39.3629 52.6351 40.8923C52.6351 43.1148 50.262 43.8264 47.9638 44.0542ZM47.9638 44.0542C46.8818 44.1615 45.8163 44.1615 45.0229 44.1615" stroke="#7B7B7B" stroke-width="2" stroke-linecap="round"/>
<path d="M28.0253 53.2594C25.4384 50.4469 20.197 45.6094 20.9383 34.5846C21.8384 21.1971 32.6381 10.9594 47.9381 12.0846M62.2259 53.0344C64.4759 50.7844 68.4813 47.0267 69.2013 36.4967C70.0859 23.5594 58.7384 14.5594 52.2134 12.9844" stroke="#7B7B7B" stroke-width="2" stroke-linecap="round"/>
<rect x="37.6992" y="29.1846" width="4.05" height="6.75" rx="1.575" fill="#7B7B7B"/>
<rect x="48.2734" y="29.1846" width="4.05" height="6.75" rx="1.575" fill="#7B7B7B"/>
<circle cx="60.6484" cy="25.585" r="2.25" fill="#82CBFF"/>
<path d="M44.7883 77.1096C38.5236 77.1096 36.853 72.1596 36.8008 69.6846L40.5133 70.3596H44.6317H48.8383L52.7758 69.6846C52.7226 72.1596 51.0192 77.1096 44.6317 77.1096" stroke="#7B7B7B" stroke-width="2"/>
<path d="M44.9896 57.9852C44.9896 57.9852 40.5299 57.8429 37.6782 57.6468C35.6104 57.5046 33.5254 56.6709 32.2881 56.221C31.7121 56.0115 30.9381 55.6583 30.1506 55.4335C29.3631 55.2087 28.529 55.2068 28.0145 55.657C26.854 56.7356 27.073 58.4326 27.3276 59.1462C27.5425 59.7911 28.0311 60.0891 28.3745 60.4962M45.1145 70.3946C43.577 70.3571 40.007 70.2146 38.027 69.9446C35.552 69.6071 35.2145 68.9321 34.7645 68.5946C34.3145 68.2571 33.6395 67.2446 33.302 66.0071C33.2645 65.8696 33.2184 65.7462 33.1647 65.6352M28.3745 60.4962C28.5103 60.6572 28.6234 60.8353 28.6879 61.0587C28.7451 61.2569 29.0146 61.9587 29.2396 62.6337C29.4646 63.3087 30.0271 64.2087 30.9395 64.4321C31.8191 64.6474 32.735 64.7466 33.1647 65.6352M28.3745 60.4962C32.8625 62.6337 39.1625 63.1602 44.9896 63.1602M33.1647 65.6352C34.6237 66.1227 39.0314 67.0977 44.9896 67.0977M44.7998 57.9852C44.7998 57.9852 49.2595 57.8429 52.1113 57.6468C54.179 57.5046 56.264 56.6709 57.5014 56.221C58.0774 56.0115 58.8514 55.6583 59.6389 55.4335C60.4264 55.2087 61.2605 55.2068 61.775 55.657C62.9355 56.7356 62.7165 58.4326 62.4619 59.1462C62.2469 59.7911 61.7583 60.0891 61.4149 60.4962M44.6749 70.3946C46.2124 70.3571 49.7824 70.2146 51.7624 69.9446C54.2374 69.6071 54.5749 68.9321 55.0249 68.5946C55.4749 68.2571 56.1499 67.2446 56.4874 66.0071C56.5249 65.8696 56.571 65.7462 56.6247 65.6352M61.4149 60.4962C61.2791 60.6572 61.166 60.8353 61.1015 61.0587C61.0443 61.2569 60.7748 61.9587 60.5498 62.6337C60.3248 63.3087 59.7623 64.2087 58.8499 64.4321C57.9703 64.6474 57.0544 64.7466 56.6247 65.6352M61.4149 60.4962C56.927 62.6337 50.627 63.1602 44.7998 63.1602M56.6247 65.6352C55.1657 66.1227 50.7581 67.0977 44.7998 67.0977" stroke="#7B7B7B" stroke-width="2" stroke-linejoin="round"/>
<path d="M19.3602 57.7275C20.8786 60.2901 22.5756 61.815 23.9735 62.6513C24.2065 62.7906 24.6498 63.2744 24.5589 64.0953C24.4454 65.1214 23.8146 67.3985 23.5481 68.2614C23.2816 69.1242 22.6009 70.5284 20.9418 70.3967C19.6146 70.2914 18.9541 69.0401 18.7898 68.4277C17.76 68.902 17.0732 69.3738 15.7364 69.5533C12.8719 69.9379 10.0516 66.8048 10.3923 63.7264C10.733 60.6481 13.7645 58.2866 15.3534 57.343C18.338 55.5704 18.9303 57.0019 19.3602 57.7275Z" stroke="#7B7B7B" stroke-width="2" stroke-linejoin="round"/>
<path d="M70.5773 57.7275C69.0589 60.2901 67.3619 61.815 65.964 62.6513C65.731 62.7906 65.2877 63.2744 65.3786 64.0953C65.4921 65.1214 66.1229 67.3985 66.3894 68.2614C66.6559 69.1242 67.3366 70.5284 68.9957 70.3967C70.3229 70.2914 70.9834 69.0401 71.1477 68.4277C72.1775 68.902 72.8643 69.3738 74.2011 69.5533C77.0656 69.9379 79.8859 66.8048 79.5452 63.7264C79.2045 60.6481 76.173 58.2866 74.5841 57.343C71.5995 55.5704 71.0072 57.0019 70.5773 57.7275Z" stroke="#7B7B7B" stroke-width="2" stroke-linejoin="round"/>
</svg>
