<svg width="455" height="472" viewBox="0 0 455 472" fill="none" xmlns="http://www.w3.org/2000/svg">
<path d="M229.144 105.064C228.739 103.269 226.214 103.281 225.826 105.079L225.812 105.156L225.779 105.303C225.543 106.373 224.999 107.347 224.217 108.104C223.434 108.861 222.449 109.366 221.384 109.555C219.539 109.882 219.539 112.566 221.384 112.893C222.453 113.083 223.442 113.591 224.226 114.352C225.009 115.113 225.552 116.093 225.785 117.168L225.826 117.369C226.216 119.167 228.739 119.18 229.144 117.384L229.197 117.15C229.437 116.077 229.985 115.101 230.771 114.344C231.557 113.587 232.546 113.083 233.614 112.896C235.462 112.57 235.462 109.878 233.614 109.553C232.552 109.366 231.568 108.867 230.784 108.116C230 107.366 229.451 106.398 229.205 105.334L229.164 105.156L229.144 105.064Z" fill="#82CBFF"/>
<path d="M223.917 43H227.5H231.083C233.218 43 234.922 44.7803 234.829 46.9134L232.828 92.7905C232.779 93.923 232.226 94.9848 231.239 95.5418C230.17 96.1444 228.718 96.8078 227.5 96.8078C226.282 96.8078 224.83 96.1444 223.761 95.5418C222.774 94.9848 222.221 93.923 222.172 92.7905L220.171 46.9134C220.078 44.7803 221.782 43 223.917 43Z" fill="#82CBFF"/>
<path d="M185.184 277.255C204.371 273.955 214.099 258.935 217.327 245.119C220.278 232.491 216.831 227.755 209.75 227.755C204.439 227.755 201.395 230.931 201.395 236.029C201.395 246.926 218.507 246.926 226.769 246.926M268.434 277.255C249.916 274.07 240.208 259.969 236.652 246.569M236.652 246.569C236.523 246.085 236.403 245.601 236.29 245.119C233.339 232.491 236.786 227.755 243.867 227.755C249.178 227.755 252.222 230.931 252.222 236.029C252.222 243.438 244.312 245.809 236.652 246.569ZM236.652 246.569C233.045 246.926 229.493 246.926 226.849 246.926" stroke="#D9D9D9" stroke-width="6" stroke-linecap="round"/>
<path d="M170.181 277.255C161.558 267.88 144.086 251.755 146.557 215.006C149.558 170.381 185.557 136.256 236.557 140.006M284.183 276.505C291.683 269.005 305.034 256.48 307.434 221.38C310.383 178.255 272.558 148.255 250.808 143.005" stroke="#D9D9D9" stroke-width="6" stroke-linecap="round"/>
<rect x="202.434" y="197.005" width="13.5" height="22.5" rx="5.25" fill="#D9D9D9"/>
<rect x="237.684" y="197.005" width="13.5" height="22.5" rx="5.25" fill="#D9D9D9"/>
<circle cx="278.934" cy="185.005" r="7.5" fill="#F7E789"/>
<path d="M226.059 356.755C205.176 356.755 199.608 340.255 199.434 332.005L211.809 334.255H225.537H239.559L252.684 332.005C252.506 340.255 246.828 356.755 225.537 356.755" stroke="#D9D9D9" stroke-width="6"/>
<path d="M226.732 293.005C226.732 293.005 211.867 292.531 202.361 291.878C195.468 291.404 188.518 288.624 184.394 287.125C182.474 286.427 179.894 285.249 177.269 284.5C174.644 283.75 171.864 283.744 170.148 285.245C166.28 288.84 167.01 294.497 167.859 296.875C168.575 299.025 170.204 300.018 171.349 301.375M227.149 334.37C222.024 334.245 210.124 333.77 203.524 332.87C195.274 331.745 194.149 329.495 192.649 328.37C191.149 327.245 188.899 323.87 187.774 319.745C187.649 319.287 187.495 318.876 187.316 318.505M171.349 301.375C171.801 301.912 172.178 302.506 172.393 303.25C172.584 303.911 173.482 306.25 174.232 308.5C174.982 310.75 176.857 313.75 179.899 314.495C182.831 315.213 185.884 315.544 187.316 318.505M171.349 301.375C186.309 308.5 207.309 310.255 226.732 310.255M187.316 318.505C192.179 320.13 206.871 323.38 226.732 323.38M226.1 293.005C226.1 293.005 240.965 292.531 250.471 291.878C257.364 291.404 264.314 288.624 268.438 287.125C270.358 286.427 272.938 285.249 275.563 284.5C278.188 283.75 280.969 283.744 282.684 285.245C286.552 288.84 285.822 294.497 284.973 296.875C284.257 299.025 282.628 300.018 281.483 301.375M225.683 334.37C230.808 334.245 242.708 333.77 249.308 332.87C257.558 331.745 258.683 329.495 260.183 328.37C261.683 327.245 263.933 323.87 265.058 319.745C265.183 319.287 265.337 318.876 265.516 318.505M281.483 301.375C281.031 301.912 280.654 302.506 280.439 303.25C280.248 303.911 279.35 306.25 278.6 308.5C277.85 310.75 275.975 313.75 272.933 314.495C270.001 315.213 266.948 315.544 265.516 318.505M281.483 301.375C266.523 308.5 245.523 310.255 226.1 310.255M265.516 318.505C260.653 320.13 245.961 323.38 226.1 323.38" stroke="#D9D9D9" stroke-width="6" stroke-linejoin="round"/>
<path d="M131.623 307.679C136.96 299.306 142.779 294.41 147.527 291.775C148.318 291.336 149.847 289.772 149.634 287.028C149.367 283.597 147.512 275.942 146.718 273.038C145.924 270.135 143.808 265.383 138.267 265.642C133.833 265.849 131.497 269.946 130.883 271.968C127.504 270.276 125.267 268.63 120.833 267.887C111.331 266.295 101.595 276.427 102.397 286.72C103.198 297.012 113.041 305.209 118.232 308.525C127.984 314.754 130.112 310.049 131.623 307.679Z" stroke="#D9D9D9" stroke-width="6" stroke-linejoin="round"/>
<path d="M323.381 307.679C318.044 299.306 312.225 294.41 307.477 291.775C306.686 291.336 305.157 289.772 305.37 287.028C305.637 283.597 307.492 275.942 308.286 273.038C309.08 270.135 311.196 265.383 316.737 265.642C321.171 265.849 323.507 269.946 324.12 271.968C327.5 270.276 329.737 268.63 334.171 267.887C343.673 266.295 353.408 276.427 352.607 286.72C351.806 297.012 341.963 305.209 336.771 308.525C327.02 314.754 324.892 310.049 323.381 307.679Z" stroke="#D9D9D9" stroke-width="6" stroke-linejoin="round"/>
<path d="M97.8613 419.96C97.8613 422.353 99.2529 424.745 102.158 425.844L100.718 427.919C98.7524 427.162 97.3853 425.758 96.5918 424.037C95.7861 426.015 94.3457 427.699 92.2461 428.578L90.7812 426.503C93.8086 425.16 95.2246 422.401 95.249 419.96V417.226H97.8613V419.96ZM109.849 415.883V429.408H107.261V423.671H105.063V428.725H102.524V416.298H105.063V421.449H107.261V415.883H109.849ZM102.402 429.774C107.017 429.774 109.946 431.288 109.971 433.827C109.946 436.366 107.017 437.904 102.402 437.904C97.7393 437.904 94.834 436.366 94.834 433.827C94.834 431.288 97.7393 429.774 102.402 429.774ZM102.402 431.825C99.3506 431.825 97.5439 432.533 97.5439 433.827C97.5439 435.146 99.3506 435.829 102.402 435.829C105.43 435.829 107.236 435.146 107.236 433.827C107.236 432.533 105.43 431.825 102.402 431.825ZM120.039 419.032C120.015 422.035 121.772 424.77 125.239 425.868L123.774 427.992C121.37 427.15 119.685 425.551 118.745 423.451C117.769 425.856 115.925 427.748 113.252 428.676L111.812 426.479C115.474 425.282 117.305 422.328 117.305 419.154V417.055H120.039V419.032ZM130.439 415.858V428.847H127.729V422.353H123.335V420.131H127.729V415.858H130.439ZM122.969 429.433C127.656 429.433 130.513 430.995 130.513 433.681C130.513 436.366 127.656 437.904 122.969 437.904C118.306 437.904 115.449 436.366 115.474 433.681C115.449 430.995 118.306 429.433 122.969 429.433ZM122.969 431.532C119.893 431.532 118.159 432.289 118.159 433.681C118.159 435.023 119.893 435.78 122.969 435.78C126.045 435.78 127.803 435.023 127.803 433.681C127.803 432.289 126.045 431.532 122.969 431.532ZM151.089 422.792V424.965H146.987V427.455C148.831 427.382 150.662 427.26 152.383 427.089L152.578 429.042C147.891 429.701 142.812 429.823 138.711 429.823L138.345 427.65C140.164 427.638 142.178 427.626 144.253 427.553V424.965H140.249V417.226H150.918V419.423H142.983V422.792H151.089ZM156.655 415.858V432.436H153.921V415.858H156.655ZM157.29 435.292V437.489H141.86V431.215H144.595V435.292H157.29ZM173.032 418.153V426.259H167.808V430.409C170.09 430.385 172.251 430.287 174.741 429.823L174.961 432.045C172.007 432.582 169.517 432.655 166.733 432.655H165.195V424.11H170.42V420.326H165.171V418.153H173.032ZM183.53 415.858V437.929H180.942V415.858H183.53ZM178.989 416.322V436.806H176.426V425.746H174.009V423.524H176.426V416.322H178.989ZM198.311 417.934V420.131H196.04V430.214C197.017 430.141 197.993 430.055 198.921 429.945L199.067 431.898C194.6 432.655 189.473 432.753 185.664 432.753L185.396 430.507L188.032 430.482V420.131H186.03V417.934H198.311ZM204.023 415.858V437.929H201.338V426.186H197.627V423.988H201.338V415.858H204.023ZM190.693 430.434C191.597 430.421 192.512 430.397 193.428 430.36V420.131H190.693V430.434ZM217.314 417.372V424.208H210.088V426.991C213.738 426.979 216.179 426.857 218.926 426.405L219.146 428.627C216.094 429.091 213.408 429.188 209.16 429.188H207.354V422.108H214.604V419.545H207.329V417.372H217.314ZM224.98 415.883V432.118H222.271V423.622H218.511V421.327H222.271V415.883H224.98ZM225.566 435.292V437.489H210.381V430.824H213.091V435.292H225.566ZM238.882 418.886C238.882 422.304 242.227 425.722 246.841 426.527L245.62 428.798C241.921 428.017 238.894 425.783 237.466 422.816C236.001 425.758 232.974 428.004 229.287 428.798L228.091 426.527C232.656 425.697 235.977 422.279 236.001 418.886V417.25H238.882V418.886ZM247.646 432.875V435.121H227.48V432.875H247.646ZM265.747 415.858V424.477H269.019V426.747H265.747V437.88H263.037V415.858H265.747ZM259.912 418.153C259.912 424.647 257.227 430.336 249.878 433.949L248.34 431.85C253.711 429.176 256.616 425.417 257.178 420.399H249.536V418.153H259.912ZM279.756 428.773V431.142H282.661V428.773H285.176V435.78C287.764 434.694 288.96 432.46 288.96 430.36V428.603H291.67V430.36C291.67 432.655 292.842 434.877 295.576 435.805L294.185 437.831C292.244 437.135 290.986 435.792 290.303 434.12C289.558 435.744 288.301 437.086 286.47 437.831L285.176 435.902V437.66H277.217V428.773H279.756ZM279.756 435.585H282.661V433.168H279.756V435.585ZM280.879 416.762C283.723 416.762 285.969 418.349 286.543 420.741H290.522V415.858H293.232V427.553H290.522V422.987H286.543C286.006 425.441 283.735 427.064 280.879 427.064C277.485 427.064 275.044 424.94 275.044 421.889C275.044 418.861 277.485 416.762 280.879 416.762ZM280.879 419.008C278.975 419.008 277.632 420.131 277.632 421.889C277.632 423.671 278.975 424.843 280.879 424.843C282.734 424.843 284.053 423.671 284.077 421.889C284.053 420.131 282.734 419.008 280.879 419.008ZM300.835 429.091V431.19H310.552V429.091H313.262V437.66H298.149V429.091H300.835ZM300.835 435.512H310.552V433.266H300.835V435.512ZM315.85 425.624V427.846H295.732V425.624H315.85ZM307.183 416.933C307.183 419.301 310.21 421.791 314.775 422.328L313.823 424.477C310.125 423.976 307.207 422.34 305.791 420.106C304.363 422.353 301.433 423.976 297.759 424.477L296.758 422.328C301.372 421.767 304.375 419.374 304.399 416.933V416.103H307.183V416.933ZM335.122 415.858V437.929H332.437V415.858H335.122ZM320.669 418.007V430.067C323.77 430.019 327.065 429.738 330.459 429.066L330.801 431.337C326.919 432.143 323.306 432.387 319.888 432.387H317.983V418.007H320.669ZM354.98 415.858V424.232H358.374V426.454H354.98V437.953H352.271V415.858H354.98ZM348.926 417.958V420.155H341.309V430.287C344.739 430.287 347.449 430.116 350.488 429.579L350.806 431.874C347.388 432.46 344.409 432.558 340.43 432.558H338.599V417.958H348.926ZM361.362 435.951C360.312 435.951 359.458 435.097 359.458 434.047C359.458 433.021 360.312 432.167 361.362 432.167C362.363 432.167 363.242 433.021 363.242 434.047C363.242 435.097 362.363 435.951 361.362 435.951ZM7.63867 450.025V455.768H2.67773V459.908C4.75781 459.908 6.73047 459.84 9.20117 459.4L9.2793 460.436C6.75977 460.885 4.76758 460.943 2.59961 460.963H1.4668V454.752H6.44727V451.08H1.42773V450.025H7.63867ZM15.5293 448.053V465.279H14.3379V448.053H15.5293ZM12.0137 448.502V464.342H10.8418V455.377H8.51758V454.361H10.8418V448.502H12.0137ZM27.627 449.967V451.002H25.5566V459.576C26.4648 459.537 27.3633 459.459 28.2129 459.361L28.291 460.299C24.7754 460.807 20.6738 460.904 17.627 460.904L17.4902 459.811L19.9316 459.791V451.002H18.0566V449.967H27.627ZM31.8457 448.053V465.279H30.6348V455.67H27.0215V454.615H30.6348V448.053H31.8457ZM21.1426 459.771C22.1973 459.742 23.2812 459.713 24.3652 459.654V451.002H21.1426V459.771ZM36.4629 457.252C39.8809 457.252 41.873 457.154 44.2754 456.744L44.3926 457.779C41.9316 458.209 39.9199 458.287 36.4629 458.287H35.1738V453.131H41.5605V450.299H35.1152V449.283H42.7715V454.166H36.4043V457.252H36.4629ZM48.6309 448.053V460.689H47.4004V453.756H43.9434V452.662H47.4004V448.053H48.6309ZM49.1973 463.834V464.869H37.5566V459.771H38.7871V463.834H49.1973ZM59.6543 450.67C59.6543 453.756 63.4043 456.373 66.1191 456.881L65.5137 457.936C63.082 457.33 60.123 455.445 59.0293 452.799C57.9355 455.445 54.9766 457.33 52.5449 457.936L51.959 456.881C54.6738 456.354 58.3652 453.775 58.3848 450.67V449.303H59.6543V450.67ZM66.998 461.822V462.857H51.2168V461.822H66.998ZM77.0527 448.873C79.4062 448.873 81.1543 450.23 81.4277 452.271H85.2949V448.053H86.5254V457.271H85.2949V453.307H81.4473C81.1836 455.377 79.4258 456.764 77.0527 456.764C74.4355 456.764 72.5996 455.162 72.6191 452.818C72.5996 450.475 74.4355 448.873 77.0527 448.873ZM77.0527 449.928C75.1387 449.928 73.791 451.139 73.791 452.818C73.791 454.479 75.1387 455.709 77.0527 455.709C78.9277 455.709 80.2754 454.479 80.2754 452.818C80.2754 451.139 78.9277 449.928 77.0527 449.928ZM76.7988 458.189V460.553H85.2949V458.189H86.5254V465.025H75.5684V458.189H76.7988ZM76.7988 464.01H85.2949V461.549H76.7988V464.01ZM104.893 462.018V463.072H89.1113V462.018H96.3379V458.541H91.1426V453.385H101.631V450.416H91.084V449.381H102.842V454.42H92.3535V457.506H103.252V458.541H97.5684V462.018H104.893ZM119.764 456.432V457.467H107.967V449.713H119.588V450.748H109.178V456.432H119.764ZM121.678 461.783V462.838H105.896V461.783H121.678ZM138.424 456.139V457.135H122.662V456.139H138.424ZM136.432 458.697V462.232H125.846V464.088H137.018V465.025H124.635V461.314H135.201V459.654H124.596V458.697H136.432ZM136.373 448.639V452.037H125.943V453.736H136.666V454.674H124.732V451.158H135.143V449.557H124.674V448.639H136.373ZM159.494 457.271V458.287H143.771V457.271H151.018V455.338H145.9V448.561H157.502V449.596H147.15V451.432H157.014V452.389H147.15V454.342H157.58V455.338H152.248V457.271H159.494ZM151.643 459.752C155.412 459.752 157.541 460.709 157.541 462.486C157.541 464.283 155.412 465.221 151.643 465.221C147.834 465.221 145.705 464.283 145.705 462.486C145.705 460.709 147.834 459.752 151.643 459.752ZM151.643 460.709C148.674 460.709 146.936 461.373 146.955 462.486C146.936 463.639 148.674 464.264 151.643 464.244C154.572 464.264 156.311 463.639 156.311 462.486C156.311 461.373 154.572 460.709 151.643 460.709ZM169.287 451.139V452.154H160.537V451.139H164.287V448.58H165.537V451.139H169.287ZM164.912 453.443C167.061 453.463 168.604 455.045 168.604 457.311C168.604 459.596 167.061 461.197 164.912 461.197C162.764 461.197 161.221 459.596 161.221 457.311C161.221 455.045 162.764 453.463 164.912 453.443ZM164.912 454.498C163.408 454.518 162.314 455.729 162.334 457.311C162.314 458.912 163.408 460.123 164.912 460.104C166.396 460.123 167.49 458.912 167.51 457.311C167.49 455.729 166.396 454.518 164.912 454.498ZM175.186 448.053V465.279H174.014V456.432H171.416V464.4H170.264V448.482H171.416V455.396H174.014V448.053H175.186ZM194.947 448.053V455.006H197.916V456.041H194.947V465.299H193.717V448.053H194.947ZM183.795 459.869C187.076 459.869 189.303 459.752 191.92 459.264L192.096 460.338C189.381 460.826 187.135 460.943 183.795 460.943H182.467V449.752H190.494V450.787H183.697V459.869H183.795ZM214.525 450.807V451.842H211.889V454.439H214.525V455.494H211.889V458.326H210.658V448.053H211.889V450.807H214.525ZM203.334 449.107C205.932 449.107 207.768 450.729 207.787 453.131C207.768 455.514 205.932 457.135 203.334 457.135C200.736 457.135 198.861 455.514 198.861 453.131C198.861 450.729 200.736 449.107 203.334 449.107ZM203.334 450.162C201.439 450.162 200.053 451.412 200.072 453.131C200.053 454.85 201.439 456.08 203.334 456.08C205.209 456.08 206.576 454.85 206.596 453.131C206.576 451.412 205.209 450.162 203.334 450.162ZM206.4 458.893C209.896 458.912 212.025 460.064 212.025 462.076C212.025 464.049 209.896 465.221 206.4 465.221C202.885 465.221 200.736 464.049 200.756 462.076C200.736 460.064 202.885 458.912 206.4 458.893ZM206.4 459.928C203.686 459.928 201.947 460.748 201.967 462.076C201.947 463.404 203.686 464.205 206.4 464.205C209.115 464.205 210.834 463.404 210.834 462.076C210.834 460.748 209.115 459.928 206.4 459.928ZM228.674 448.053V453.873H231.33V454.928H228.674V460.982H227.443V448.053H228.674ZM225.588 450.26V451.295H215.314V450.26H219.846V448.072H221.057V450.26H225.588ZM220.451 452.35C222.893 452.35 224.553 453.6 224.553 455.533C224.553 457.467 222.893 458.697 220.451 458.697C217.971 458.697 216.33 457.467 216.33 455.533C216.33 453.6 217.971 452.35 220.451 452.35ZM220.451 453.346C218.674 453.346 217.482 454.225 217.502 455.533C217.482 456.822 218.674 457.701 220.451 457.682C222.209 457.701 223.381 456.822 223.4 455.533C223.381 454.225 222.209 453.346 220.451 453.346ZM229.514 463.834V464.869H218.01V459.928H219.221V463.834H229.514ZM240.955 449.42C243.475 449.42 245.252 451.744 245.252 455.377C245.252 459.01 243.475 461.334 240.955 461.334C238.436 461.334 236.678 459.01 236.697 455.377C236.678 451.744 238.436 449.42 240.955 449.42ZM240.955 450.514C239.139 450.514 237.85 452.506 237.85 455.377C237.85 458.268 239.139 460.24 240.955 460.24C242.811 460.24 244.061 458.268 244.08 455.377C244.061 452.506 242.811 450.514 240.955 450.514ZM249.627 448.053V455.064H252.596V456.119H249.627V465.279H248.396V448.053H249.627ZM267.291 448.053V465.299H266.061V448.053H267.291ZM258.189 449.42C260.729 449.42 262.545 451.744 262.545 455.377C262.545 459.01 260.729 461.334 258.189 461.334C255.631 461.334 253.834 459.01 253.834 455.377C253.834 451.744 255.631 449.42 258.189 449.42ZM258.189 450.514C256.334 450.514 255.025 452.506 255.025 455.377C255.025 458.268 256.334 460.24 258.189 460.24C260.045 460.24 261.334 458.268 261.334 455.377C261.334 452.506 260.045 450.514 258.189 450.514ZM284.076 448.053V465.299H282.846V448.053H284.076ZM272.455 459.889C275.814 459.889 278.08 459.771 280.775 459.283L280.932 460.338C278.158 460.826 275.854 460.963 272.455 460.963H271.088V449.732H279.213V450.787H272.318V459.889H272.455ZM291.311 449.42C293.664 449.42 295.344 451.48 295.549 454.752H299.709V448.053H300.92V465.299H299.709V455.768H295.568C295.422 459.176 293.723 461.334 291.311 461.334C288.791 461.334 287.033 459.01 287.053 455.377C287.033 451.744 288.791 449.42 291.311 449.42ZM291.311 450.514C289.475 450.514 288.225 452.506 288.225 455.377C288.225 458.268 289.475 460.24 291.311 460.24C293.127 460.24 294.396 458.268 294.396 455.377C294.396 452.506 293.127 450.514 291.311 450.514ZM319.248 456.139V457.135H303.486V456.139H319.248ZM317.256 458.697V462.232H306.67V464.088H317.842V465.025H305.459V461.314H316.025V459.654H305.42V458.697H317.256ZM317.197 448.639V452.037H306.768V453.736H317.49V454.674H305.557V451.158H315.967V449.557H305.498V448.639H317.197ZM338.814 448.053V457.311H337.584V454.518H334.4V453.482H337.584V451.744H334.4V450.709H337.584V448.053H338.814ZM334.303 449.205V450.24H332.428V455.377C333.307 455.318 334.156 455.25 334.967 455.162L335.025 456.08C331.666 456.588 327.701 456.627 324.83 456.627L324.674 455.553L327.018 455.533V450.24H325.162V449.205H334.303ZM338.814 458.189V461.959H328.99V464.049H339.518V465.064H327.799V460.982H337.604V459.186H327.74V458.189H338.814ZM328.229 455.533C329.205 455.514 330.23 455.484 331.236 455.436V450.24H328.229V455.533ZM355.561 448.053V457.213H354.33V448.053H355.561ZM355.561 458.092V461.92H345.717V464.049H356.225V465.064H344.525V460.982H354.35V459.088H344.467V458.092H355.561ZM351.615 450.006V451.021H347.514C347.562 453.199 349.633 455.074 352.104 455.748L351.537 456.705C349.457 456.109 347.689 454.762 346.928 452.955C346.186 454.898 344.438 456.363 342.377 457.037L341.771 456.061C344.223 455.289 346.254 453.346 346.303 451.021H342.182V450.006H346.303V447.916H347.533V450.006H351.615ZM371.006 449.732C371.006 452.291 374.521 454.342 377.354 454.771L376.846 455.787C374.307 455.328 371.455 453.824 370.381 451.607C369.307 453.844 366.455 455.318 363.916 455.787L363.389 454.771C366.24 454.342 369.736 452.35 369.736 449.732V448.697H371.006V449.732ZM378.213 457.857V458.912H370.928V465.279H369.736V458.912H362.51V457.857H378.213ZM389.303 459.771C389.303 461.344 390.211 463.033 391.92 463.951C393.629 462.936 394.576 461.129 394.576 459.771V458.697H395.787V459.771C395.768 461.549 397.193 463.346 399.381 464.107L398.756 465.045C397.018 464.41 395.748 463.16 395.162 461.686C394.645 463.102 393.57 464.488 391.959 465.182C390.27 464.527 389.176 463.219 388.678 461.744C388.072 463.15 386.832 464.4 385.162 465.045L384.518 464.107C386.686 463.307 388.111 461.412 388.111 459.771V458.697H389.303V459.771ZM397.779 448.053V457.936H396.549V448.053H397.779ZM388.521 449.107C391.119 449.107 392.975 450.709 392.975 453.092C392.975 455.455 391.119 457.057 388.521 457.057C385.924 457.057 384.049 455.455 384.068 453.092C384.049 450.709 385.924 449.107 388.521 449.107ZM388.521 450.162C386.627 450.162 385.26 451.393 385.26 453.092C385.26 454.791 386.627 456.021 388.521 456.021C390.416 456.021 391.783 454.791 391.783 453.092C391.783 451.393 390.416 450.162 388.521 450.162ZM403.686 458.385V460.572H412.787V458.385H414.037V465.025H402.455V458.385H403.686ZM403.686 464.01H412.787V461.588H403.686V464.01ZM416.107 456.002V457.057H400.404V456.002H416.107ZM408.881 449.127C408.881 451.393 412.396 453.268 415.17 453.658L414.701 454.635C412.172 454.244 409.33 452.848 408.256 450.826C407.201 452.867 404.34 454.244 401.811 454.635L401.342 453.658C404.154 453.248 407.631 451.451 407.631 449.127V448.229H408.881V449.127ZM431.291 448.053V465.279H430.08V448.053H431.291ZM419.572 449.752V459.674H419.729C422.424 459.674 425.139 459.459 428.107 458.834L428.283 459.908C425.217 460.553 422.521 460.768 419.729 460.768H418.361V449.752H419.572ZM447.236 448.053V455.006H450.205V456.041H447.236V465.299H446.006V448.053H447.236ZM436.084 459.869C439.365 459.869 441.592 459.752 444.209 459.264L444.385 460.338C441.67 460.826 439.424 460.943 436.084 460.943H434.756V449.752H442.783V450.787H435.986V459.869H436.084ZM452.459 463.854C451.873 463.854 451.404 463.385 451.404 462.818C451.404 462.232 451.873 461.764 452.459 461.764C453.025 461.764 453.494 462.232 453.494 462.818C453.494 463.385 453.025 463.854 452.459 463.854Z" fill="#7B7B7B"/>
</svg>
