<svg width="925" height="336" viewBox="0 0 925 336" fill="none" xmlns="http://www.w3.org/2000/svg">
<path d="M168 56.0952C261.622 56.0952 270.5 147.145 270.5 157.777C270.5 168.41 270 178.013 268 186.596C266 195.178 264.5 204.747 256.5 216.721C250.972 224.995 245.553 227.966 237 226.732C228.447 225.497 223.233 219.759 229.702 208.021C244.975 180.307 245.585 167.898 246.196 159.256C246.807 150.615 245.672 143.999 244.975 140.121C243.753 133.331 241.309 126.541 238.865 120.986C236.422 115.43 218.819 76.1302 168 76.1302C116.98 76.1302 94.08 99.5577 94.08 153.701L78.5512 167.898C77.5855 169.75 75.8346 170.958 78.5512 175.306C81.2509 179.627 89.4424 178.621 91.0255 183.33C91.7934 185.615 89.1927 188.886 89.1927 188.886C89.1927 188.886 87.9709 190.12 90.4146 194.441C91.7282 197.126 98.3564 197.527 96.793 204.935C95.2296 212.342 97.0447 212.439 100.5 213.537C104.5 214.808 105.267 224.745 100.5 225.984C84 230.271 75 220.239 70 204.935C65 185.799 65.5 183.405 65.5 165.371C67 101.421 105.492 56.0952 168 56.0952ZM25.6941 160.272C31.152 160.272 35.5765 164.757 35.5765 170.289C35.5764 175.822 31.152 180.307 25.6941 180.307H9.88235C4.4245 180.307 2.8931e-05 175.822 0 170.289C0 164.757 4.42448 160.272 9.88235 160.272H25.6941ZM326.118 160.272C331.576 160.272 336 164.757 336 170.289C336 175.822 331.576 180.307 326.118 180.307H310.306C304.848 180.307 300.424 175.822 300.424 170.289C300.424 164.757 304.848 160.272 310.306 160.272H326.118ZM49.2226 49.8937C53.0818 45.9816 59.339 45.9818 63.1984 49.8937L74.3774 61.2248L74.5554 61.4099C78.2358 65.3344 78.1768 71.5407 74.3778 75.3917C70.5789 79.2427 64.4563 79.303 60.5846 75.5725L60.402 75.3921L49.223 64.0607L49.045 63.8756C45.3647 59.9511 45.4237 53.7447 49.2226 49.8937ZM275.598 75.3761C271.739 79.288 265.481 79.2878 261.622 75.3757C257.763 71.4636 257.763 65.1208 261.623 61.2088L275.598 75.3761ZM272.802 49.8777C276.661 45.9657 282.918 45.9655 286.777 49.8777C290.637 53.7898 290.636 60.1326 286.777 64.0446L275.598 75.3761L261.623 61.2088L272.802 49.8777ZM158.118 26.0447V10.0175C158.118 4.48499 162.542 0 168 0C173.458 0 177.882 4.48499 177.882 10.0175V26.0447C177.882 31.5772 173.458 36.0622 168 36.0622C162.542 36.0622 158.118 31.5772 158.118 26.0447Z" fill="url(#paint0_linear_429_7711)"/>
<path fill-rule="evenodd" clip-rule="evenodd" d="M224.461 231.001H111.746C109.379 230.982 107.033 231.438 104.848 232.342L104.633 232.433C102.416 233.386 100.419 234.782 98.768 236.535L98.6094 236.705C96.9804 238.481 95.736 240.57 94.9528 242.843L94.8787 243.064C94.1011 245.423 93.8351 247.919 94.0986 250.388C94.1036 250.435 94.1089 250.481 94.1145 250.528L94.2076 251.274C95.1952 258.988 97.0302 266.702 101.442 273.834C105.261 280.008 110.636 285.152 117.857 289.557C119.248 301.788 122.037 313.271 129.112 321.826C137.772 332.297 150.88 336.27 167.837 335.986C183.427 336.153 196.45 333.016 205.351 323.023C212.687 314.786 215.775 303.391 217.108 290.29C233.795 281.869 240.075 264.702 241.866 250.148C243.216 239.155 234.144 231.001 224.461 231.001ZM138.452 293.354C139.771 300.956 141.711 305.945 144.442 309.248C147.688 313.172 153.622 316.462 167.633 316.205L167.936 316.204L168.557 316.209C181.498 316.276 187.27 313.514 190.494 309.894C193.238 306.813 195.381 301.801 196.697 293.366L138.452 293.354ZM114.194 250.783C115.026 256.145 116.292 260.127 118.351 263.456C120.434 266.823 123.755 270.202 129.738 273.571L205.989 273.586C214.896 270.107 219.762 261.853 221.7 250.783H114.194Z" fill="url(#paint1_linear_429_7711)"/>
<g clip-path="url(#clip0_429_7711)">
<path d="M407.966 170.411C412.376 170.411 415.421 169.851 417.101 168.731C418.781 167.541 419.621 165.931 419.621 163.901C419.621 162.081 418.886 160.681 417.416 159.701C416.016 158.721 413.531 158.231 409.961 158.231H398.306C397.676 158.231 397.186 158.371 396.836 158.651C396.556 158.861 396.311 159.141 396.101 159.491C395.961 159.841 395.856 160.191 395.786 160.541C395.786 160.821 395.786 161.066 395.786 161.276C395.436 168.206 395.226 174.926 395.156 181.436C395.086 187.876 395.121 194.001 395.261 199.811C395.261 200.021 395.261 200.336 395.261 200.756C395.331 201.106 395.436 201.491 395.576 201.911C395.786 202.261 396.066 202.576 396.416 202.856C396.836 203.066 397.361 203.171 397.991 203.171H411.536C415.246 203.171 417.871 202.541 419.411 201.281C420.951 199.951 421.721 198.096 421.721 195.716C421.721 193.406 420.741 191.551 418.781 190.151C416.821 188.681 413.321 187.946 408.281 187.946H404.921C403.941 187.946 403.066 187.666 402.296 187.106C401.596 186.546 400.966 185.811 400.406 184.901C399.916 183.991 399.531 183.011 399.251 181.961C399.041 180.911 398.936 179.931 398.936 179.021C398.936 178.041 399.076 177.061 399.356 176.081C399.636 175.031 400.021 174.086 400.511 173.246C401.071 172.406 401.701 171.741 402.401 171.251C403.171 170.691 404.011 170.411 404.921 170.411H407.966ZM424.136 178.391C426.936 179.091 429.316 180.141 431.276 181.541C433.236 182.871 434.811 184.411 436.001 186.161C437.261 187.841 438.171 189.696 438.731 191.726C439.291 193.686 439.571 195.611 439.571 197.501C439.571 200.861 438.906 203.976 437.576 206.846C436.316 209.716 434.461 212.166 432.011 214.196C429.631 216.226 426.691 217.801 423.191 218.921C419.761 220.111 415.841 220.706 411.431 220.706H386.336C384.096 220.706 382.136 219.936 380.456 218.396C378.776 216.926 377.866 214.966 377.726 212.516C377.656 210.976 377.586 208.561 377.516 205.271C377.446 201.911 377.376 198.166 377.306 194.036C377.306 189.836 377.306 185.426 377.306 180.806C377.376 176.186 377.446 171.811 377.516 167.681C377.586 163.481 377.691 159.771 377.831 156.551C378.041 153.331 378.251 150.986 378.461 149.516C378.881 146.856 379.966 144.721 381.716 143.111C383.536 141.501 385.496 140.696 387.596 140.696H409.331C418.081 140.696 424.941 142.586 429.911 146.366C434.951 150.146 437.471 155.501 437.471 162.431C437.471 164.111 437.226 165.861 436.736 167.681C436.246 169.431 435.476 171.041 434.426 172.511C433.376 173.981 432.011 175.241 430.331 176.291C428.651 177.341 426.586 178.041 424.136 178.391ZM442.703 191.306C442.703 186.966 443.333 182.941 444.593 179.231C445.853 175.451 447.708 172.196 450.158 169.466C452.678 166.736 455.758 164.601 459.398 163.061C463.038 161.451 467.203 160.646 471.893 160.646C475.393 160.646 478.788 161.241 482.078 162.431C485.368 163.621 488.273 165.406 490.793 167.786C493.383 170.096 495.483 173.036 497.093 176.606C498.703 180.106 499.578 184.201 499.718 188.891C499.788 192.181 499.088 194.736 497.618 196.556C496.148 198.306 493.873 199.181 490.793 199.181H471.368C469.408 199.181 467.973 198.446 467.063 196.976C466.153 195.506 465.698 193.791 465.698 191.831C465.698 189.871 466.223 188.121 467.273 186.581C468.323 184.971 469.758 184.166 471.578 184.166H481.553C481.553 183.326 481.378 182.416 481.028 181.436C480.748 180.456 480.258 179.581 479.558 178.811C478.928 177.971 478.018 177.306 476.828 176.816C475.638 176.256 474.133 175.976 472.313 175.976C468.743 175.976 465.943 177.201 463.913 179.651C461.883 182.031 460.868 185.916 460.868 191.306C460.868 196.486 461.918 200.266 464.018 202.646C466.118 205.026 469.093 206.321 472.943 206.531C474.833 206.671 476.828 206.566 478.928 206.216C481.098 205.796 483.198 205.026 485.228 203.906C486.278 203.416 487.363 203.136 488.483 203.066C489.603 202.996 490.653 203.136 491.633 203.486C492.613 203.836 493.453 204.431 494.153 205.271C494.923 206.111 495.483 207.161 495.833 208.421C496.183 209.611 496.218 210.731 495.938 211.781C495.658 212.761 495.238 213.636 494.678 214.406C494.188 215.176 493.628 215.806 492.998 216.296C492.368 216.856 491.843 217.241 491.423 217.451C488.833 218.991 485.823 220.146 482.393 220.916C478.963 221.686 475.463 221.966 471.893 221.756C466.713 221.476 462.268 220.461 458.558 218.711C454.848 217.031 451.803 214.826 449.423 212.096C447.113 209.366 445.398 206.216 444.278 202.646C443.228 199.076 442.703 195.296 442.703 191.306ZM568.467 140.696C569.657 140.696 570.777 140.906 571.827 141.326C572.877 141.746 573.787 142.236 574.557 142.796C575.397 143.356 576.062 143.951 576.552 144.581C577.112 145.141 577.497 145.596 577.707 145.946C578.687 147.696 579.842 150.076 581.172 153.086C582.502 156.096 583.902 159.491 585.372 163.271C586.912 166.981 588.452 170.936 589.992 175.136C591.602 179.336 593.142 183.536 594.612 187.736C596.082 191.866 597.447 195.821 598.707 199.601C599.967 203.381 601.017 206.706 601.857 209.576C602.137 210.766 602.172 211.956 601.962 213.146C601.822 214.266 601.472 215.316 600.912 216.296C600.422 217.276 599.722 218.116 598.812 218.816C597.972 219.516 596.992 220.006 595.872 220.286C594.262 220.706 592.792 220.811 591.462 220.601C590.202 220.391 589.082 219.971 588.102 219.341C587.192 218.781 586.422 218.046 585.792 217.136C585.162 216.226 584.672 215.281 584.322 214.301C583.692 212.271 582.922 209.751 582.012 206.741C581.102 203.731 580.122 200.546 579.072 197.186C578.022 193.826 576.937 190.431 575.817 187.001C574.767 183.571 573.752 180.386 572.772 177.446C571.862 174.506 571.022 171.986 570.252 169.886C569.482 167.716 568.922 166.281 568.572 165.581C568.292 166.141 567.907 167.086 567.417 168.416C566.997 169.746 566.472 171.356 565.842 173.246C565.212 175.136 564.512 177.236 563.742 179.546C563.042 181.786 562.307 184.166 561.537 186.686H569.097C570.077 186.686 570.917 186.966 571.617 187.526C572.387 188.016 573.017 188.681 573.507 189.521C574.067 190.361 574.452 191.341 574.662 192.461C574.942 193.511 575.082 194.561 575.082 195.611C575.082 196.521 574.977 197.501 574.767 198.551C574.627 199.531 574.312 200.476 573.822 201.386C573.332 202.226 572.702 202.926 571.932 203.486C571.162 204.046 570.182 204.326 568.992 204.326H555.972C555.412 206.286 554.852 208.141 554.292 209.891C553.732 211.571 553.277 213.041 552.927 214.301C552.647 215.281 552.192 216.226 551.562 217.136C550.932 218.046 550.162 218.816 549.252 219.446C548.342 220.076 547.257 220.496 545.997 220.706C544.807 220.916 543.442 220.811 541.902 220.391C539.032 219.691 537.072 218.326 536.022 216.296C535.042 214.266 534.867 212.026 535.497 209.576C536.337 206.706 537.387 203.381 538.647 199.601C539.907 195.821 541.272 191.866 542.742 187.736C544.212 183.536 545.717 179.336 547.257 175.136C548.867 170.936 550.407 166.981 551.877 163.271C553.417 159.491 554.852 156.096 556.182 153.086C557.582 150.076 558.772 147.696 559.752 145.946C559.962 145.596 560.312 145.141 560.802 144.581C561.292 143.951 561.922 143.356 562.692 142.796C563.462 142.236 564.337 141.746 565.317 141.326C566.297 140.906 567.347 140.696 568.467 140.696ZM620.806 188.996C620.806 190.326 620.806 192.006 620.806 194.036C620.806 196.066 620.806 198.201 620.806 200.441C620.806 202.681 620.806 204.886 620.806 207.056C620.876 209.226 620.946 211.151 621.016 212.831C621.016 213.881 620.806 214.861 620.386 215.771C619.966 216.751 619.371 217.591 618.601 218.291C617.831 219.061 616.886 219.656 615.766 220.076C614.716 220.496 613.526 220.706 612.196 220.706C609.046 220.706 606.736 219.901 605.266 218.291C603.866 216.751 603.096 215.001 602.956 213.041C602.886 211.571 602.816 209.646 602.746 207.266C602.746 204.886 602.746 202.366 602.746 199.706C602.746 197.046 602.746 194.456 602.746 191.936C602.816 189.346 602.851 187.211 602.851 185.531C602.851 181.961 603.306 178.706 604.216 175.766C605.196 172.756 606.631 170.201 608.521 168.101C610.411 166.001 612.756 164.391 615.556 163.271C618.426 162.081 621.751 161.486 625.531 161.486H636.241C638.341 161.486 639.986 162.396 641.176 164.216C642.436 166.036 643.066 168.171 643.066 170.621C643.066 172.861 642.471 174.856 641.281 176.606C640.161 178.356 638.446 179.231 636.136 179.231H631.201C628.261 179.231 625.776 179.966 623.746 181.436C621.786 182.836 620.806 185.356 620.806 188.996ZM672.211 221.756C667.591 221.546 663.461 220.601 659.821 218.921C656.251 217.311 653.241 215.141 650.791 212.411C648.341 209.681 646.486 206.461 645.226 202.751C644.036 198.971 643.546 194.841 643.756 190.361C643.896 185.741 644.771 181.611 646.381 177.971C648.061 174.261 650.266 171.146 652.996 168.626C655.726 166.036 658.946 164.076 662.656 162.746C666.436 161.416 670.496 160.751 674.836 160.751C675.536 160.751 676.411 160.786 677.461 160.856C678.511 160.856 679.596 160.891 680.716 160.961C681.906 160.961 683.026 161.031 684.076 161.171C685.196 161.241 686.141 161.381 686.911 161.591C689.291 162.081 691.006 163.166 692.056 164.846C693.106 166.456 693.456 168.486 693.106 170.936C692.756 173.386 691.846 175.486 690.376 177.236C688.976 178.916 687.016 179.581 684.496 179.231C683.936 179.161 683.201 179.091 682.291 179.021C681.381 178.881 680.436 178.776 679.456 178.706C678.476 178.636 677.531 178.601 676.621 178.601C675.781 178.531 675.116 178.496 674.626 178.496C672.666 178.496 670.881 178.846 669.271 179.546C667.731 180.176 666.401 181.086 665.281 182.276C664.161 183.396 663.286 184.726 662.656 186.266C662.096 187.806 661.816 189.416 661.816 191.096C661.816 192.566 661.991 194.036 662.341 195.506C662.761 196.976 663.391 198.306 664.231 199.496C665.071 200.686 666.156 201.701 667.486 202.541C668.886 203.311 670.566 203.801 672.526 204.011C674.766 204.221 676.936 204.116 679.036 203.696C681.206 203.206 683.096 202.681 684.706 202.121C685.896 201.771 687.016 201.666 688.066 201.806C689.186 201.876 690.201 202.191 691.111 202.751C692.091 203.311 692.896 204.081 693.526 205.061C694.156 205.971 694.576 207.056 694.786 208.316C695.066 209.646 695.066 210.836 694.786 211.886C694.576 212.936 694.191 213.881 693.631 214.721C693.141 215.491 692.546 216.156 691.846 216.716C691.146 217.346 690.481 217.836 689.851 218.186C687.611 219.586 684.881 220.566 681.661 221.126C678.511 221.686 675.361 221.896 672.211 221.756ZM734.919 188.786C734.919 187.176 734.814 185.776 734.604 184.586C734.464 183.326 734.114 182.311 733.554 181.541C732.994 180.701 732.189 180.071 731.139 179.651C730.089 179.231 728.724 179.021 727.044 179.021C725.014 179.021 723.404 178.181 722.214 176.501C721.094 174.821 720.534 172.721 720.534 170.201C720.534 168.941 720.709 167.786 721.059 166.736C721.479 165.686 721.969 164.776 722.529 164.006C723.159 163.236 723.824 162.641 724.524 162.221C725.294 161.731 726.064 161.486 726.834 161.486H732.924C739.854 161.486 744.929 163.551 748.149 167.681C751.369 171.811 752.979 177.481 752.979 184.691C752.979 186.371 752.944 188.576 752.874 191.306C752.874 193.966 752.839 196.731 752.769 199.601C752.769 202.401 752.734 205.096 752.664 207.686C752.664 210.206 752.664 212.166 752.664 213.566C752.664 214.056 752.524 214.721 752.244 215.561C752.034 216.401 751.579 217.171 750.879 217.871C750.249 218.641 749.339 219.306 748.149 219.866C747.029 220.426 745.524 220.706 743.634 220.706C742.094 220.706 740.729 220.461 739.539 219.971C738.419 219.551 737.474 218.991 736.704 218.291C736.004 217.591 735.479 216.821 735.129 215.981C734.779 215.141 734.604 214.336 734.604 213.566C734.674 211.886 734.709 209.891 734.709 207.581C734.779 205.271 734.814 202.961 734.814 200.651C734.884 198.271 734.919 196.031 734.919 193.931C734.919 191.831 734.919 190.116 734.919 188.786ZM700.479 146.471C700.619 145.491 701.004 144.616 701.634 143.846C702.264 143.076 703.034 142.446 703.944 141.956C704.854 141.396 705.869 141.011 706.989 140.801C708.109 140.591 709.194 140.556 710.244 140.696C711.294 140.836 712.309 141.116 713.289 141.536C714.339 141.956 715.249 142.516 716.019 143.216C716.789 143.916 717.349 144.756 717.699 145.736C718.119 146.716 718.259 147.801 718.119 148.991C717.909 151.371 717.699 154.241 717.489 157.601C717.349 160.961 717.244 164.566 717.174 168.416C717.104 172.266 717.069 176.256 717.069 180.386C717.069 184.446 717.104 188.436 717.174 192.356C717.244 196.276 717.349 199.986 717.489 203.486C717.699 206.986 717.909 210.066 718.119 212.726C718.259 213.846 718.119 214.861 717.699 215.771C717.279 216.751 716.684 217.591 715.914 218.291C715.144 218.991 714.234 219.551 713.184 219.971C712.204 220.391 711.154 220.636 710.034 220.706C707.514 220.846 705.309 220.356 703.419 219.236C701.599 218.186 700.584 216.576 700.374 214.406C700.164 212.446 699.954 209.856 699.744 206.636C699.604 203.346 699.464 199.706 699.324 195.716C699.254 191.656 699.184 187.386 699.114 182.906C699.114 178.426 699.149 174.016 699.219 169.676C699.289 165.266 699.429 161.066 699.639 157.076C699.849 153.016 700.129 149.481 700.479 146.471ZM781.349 169.571C781.559 176.431 781.699 183.431 781.769 190.571C781.839 197.641 781.699 205.341 781.349 213.671C781.279 214.651 780.929 215.561 780.299 216.401C779.739 217.311 779.004 218.081 778.094 218.711C777.184 219.411 776.134 219.936 774.944 220.286C773.824 220.636 772.704 220.776 771.584 220.706C769.274 220.566 767.279 219.761 765.599 218.291C763.989 216.891 763.184 215.106 763.184 212.936C763.324 209.016 763.394 205.271 763.394 201.701C763.464 198.131 763.499 194.631 763.499 191.201C763.499 187.701 763.464 184.236 763.394 180.806C763.394 177.306 763.359 173.701 763.289 169.991C763.289 167.891 764.059 166.176 765.599 164.846C767.209 163.516 769.134 162.746 771.374 162.536C772.564 162.396 773.754 162.466 774.944 162.746C776.134 163.026 777.184 163.446 778.094 164.006C779.074 164.566 779.844 165.336 780.404 166.316C781.034 167.226 781.349 168.311 781.349 169.571ZM781.454 150.041C781.384 151.301 781.034 152.386 780.404 153.296C779.844 154.206 779.109 154.976 778.199 155.606C777.289 156.166 776.239 156.586 775.049 156.866C773.859 157.076 772.634 157.146 771.374 157.076C769.064 156.866 767.174 156.201 765.704 155.081C764.234 153.891 763.464 152.456 763.394 150.776L763.289 146.681C763.219 145.561 763.464 144.581 764.024 143.741C764.584 142.831 765.284 142.096 766.124 141.536C767.034 140.976 767.979 140.556 768.959 140.276C770.009 139.926 770.989 139.751 771.899 139.751C774.139 139.751 776.239 140.241 778.199 141.221C780.229 142.131 781.314 143.566 781.454 145.526V150.041ZM817.834 220.706C815.314 220.706 813.249 220.321 811.639 219.551C810.029 218.781 808.734 217.591 807.754 215.981C806.704 214.371 805.374 211.886 803.764 208.526C802.154 205.096 800.439 201.281 798.619 197.081C796.869 192.881 795.154 188.541 793.474 184.061C791.794 179.511 790.429 175.276 789.379 171.356C788.959 170.026 788.889 168.836 789.169 167.786C789.519 166.736 790.044 165.826 790.744 165.056C791.444 164.216 792.284 163.516 793.264 162.956C794.244 162.396 795.189 162.011 796.099 161.801C798.269 161.241 800.369 161.311 802.399 162.011C804.499 162.641 805.934 164.111 806.704 166.421C807.334 168.381 807.999 170.621 808.699 173.141C809.399 175.591 810.134 178.111 810.904 180.701C811.674 183.291 812.444 185.881 813.214 188.471C814.054 190.991 814.894 193.336 815.734 195.506C816.294 196.906 816.959 197.606 817.729 197.606C818.499 197.606 819.164 196.941 819.724 195.611C820.564 193.441 821.404 191.096 822.244 188.576C823.154 185.986 824.029 183.396 824.869 180.806C825.709 178.216 826.479 175.696 827.179 173.246C827.949 170.726 828.579 168.486 829.069 166.526C829.629 164.496 830.889 163.061 832.849 162.221C834.879 161.381 837.119 161.241 839.569 161.801C840.619 162.011 841.634 162.431 842.614 163.061C843.664 163.621 844.539 164.356 845.239 165.266C845.939 166.106 846.429 167.086 846.709 168.206C846.989 169.326 846.954 170.551 846.604 171.881C845.344 176.431 843.874 180.981 842.194 185.531C840.514 190.081 838.764 194.351 836.944 198.341C835.194 202.261 833.444 205.796 831.694 208.946C830.014 212.026 828.544 214.406 827.284 216.086C826.374 217.486 825.114 218.606 823.504 219.446C821.964 220.286 820.074 220.706 817.834 220.706ZM846.419 191.306C846.419 186.966 847.049 182.941 848.309 179.231C849.569 175.451 851.424 172.196 853.874 169.466C856.394 166.736 859.474 164.601 863.114 163.061C866.754 161.451 870.919 160.646 875.609 160.646C879.109 160.646 882.504 161.241 885.794 162.431C889.084 163.621 891.989 165.406 894.509 167.786C897.099 170.096 899.199 173.036 900.809 176.606C902.419 180.106 903.294 184.201 903.434 188.891C903.504 192.181 902.804 194.736 901.334 196.556C899.864 198.306 897.589 199.181 894.509 199.181H875.084C873.124 199.181 871.689 198.446 870.779 196.976C869.869 195.506 869.414 193.791 869.414 191.831C869.414 189.871 869.939 188.121 870.989 186.581C872.039 184.971 873.474 184.166 875.294 184.166H885.269C885.269 183.326 885.094 182.416 884.744 181.436C884.464 180.456 883.974 179.581 883.274 178.811C882.644 177.971 881.734 177.306 880.544 176.816C879.354 176.256 877.849 175.976 876.029 175.976C872.459 175.976 869.659 177.201 867.629 179.651C865.599 182.031 864.584 185.916 864.584 191.306C864.584 196.486 865.634 200.266 867.734 202.646C869.834 205.026 872.809 206.321 876.659 206.531C878.549 206.671 880.544 206.566 882.644 206.216C884.814 205.796 886.914 205.026 888.944 203.906C889.994 203.416 891.079 203.136 892.199 203.066C893.319 202.996 894.369 203.136 895.349 203.486C896.329 203.836 897.169 204.431 897.869 205.271C898.639 206.111 899.199 207.161 899.549 208.421C899.899 209.611 899.934 210.731 899.654 211.781C899.374 212.761 898.954 213.636 898.394 214.406C897.904 215.176 897.344 215.806 896.714 216.296C896.084 216.856 895.559 217.241 895.139 217.451C892.549 218.991 889.539 220.146 886.109 220.916C882.679 221.686 879.179 221.966 875.609 221.756C870.429 221.476 865.984 220.461 862.274 218.711C858.564 217.031 855.519 214.826 853.139 212.096C850.829 209.366 849.114 206.216 847.994 202.646C846.944 199.076 846.419 195.296 846.419 191.306Z" fill="#00A2FF"/>
</g>
<defs>
<linearGradient id="paint0_linear_429_7711" x1="197" y1="27.8729" x2="197" y2="257.736" gradientUnits="userSpaceOnUse">
<stop stop-color="#82CBFF"/>
<stop offset="1" stop-color="#007BFF"/>
</linearGradient>
<linearGradient id="paint1_linear_429_7711" x1="168" y1="231" x2="168" y2="336" gradientUnits="userSpaceOnUse">
<stop stop-color="#82CBFF"/>
<stop offset="1" stop-color="#007BFF"/>
</linearGradient>
<clipPath id="clip0_429_7711">
<rect width="564" height="140" fill="white" transform="translate(361 98)"/>
</clipPath>
</defs>
</svg>
