<svg width="200" height="50" viewBox="0 0 200 50" fill="none" xmlns="http://www.w3.org/2000/svg">
<g clip-path="url(#clip0_429_7804)">
<path d="M26.04 24.02C27.51 24.02 28.525 23.8333 29.085 23.46C29.645 23.0633 29.925 22.5267 29.925 21.85C29.925 21.2433 29.68 20.7767 29.19 20.45C28.7233 20.1233 27.895 19.96 26.705 19.96H22.82C22.61 19.96 22.4467 20.0067 22.33 20.1C22.2367 20.17 22.155 20.2633 22.085 20.38C22.0383 20.4967 22.0033 20.6133 21.98 20.73C21.98 20.8233 21.98 20.905 21.98 20.975C21.8633 23.285 21.7933 25.525 21.77 27.695C21.7467 29.8417 21.7583 31.8833 21.805 33.82C21.805 33.89 21.805 33.995 21.805 34.135C21.8283 34.2517 21.8633 34.38 21.91 34.52C21.98 34.6367 22.0733 34.7417 22.19 34.835C22.33 34.905 22.505 34.94 22.715 34.94H27.23C28.4667 34.94 29.3417 34.73 29.855 34.31C30.3683 33.8667 30.625 33.2483 30.625 32.455C30.625 31.685 30.2983 31.0667 29.645 30.6C28.9917 30.11 27.825 29.865 26.145 29.865H25.025C24.6983 29.865 24.4067 29.7717 24.15 29.585C23.9167 29.3983 23.7067 29.1533 23.52 28.85C23.3567 28.5467 23.2283 28.22 23.135 27.87C23.065 27.52 23.03 27.1933 23.03 26.89C23.03 26.5633 23.0767 26.2367 23.17 25.91C23.2633 25.56 23.3917 25.245 23.555 24.965C23.7417 24.685 23.9517 24.4633 24.185 24.3C24.4417 24.1133 24.7217 24.02 25.025 24.02H26.04ZM31.43 26.68C32.3633 26.9133 33.1567 27.2633 33.81 27.73C34.4633 28.1733 34.9883 28.6867 35.385 29.27C35.805 29.83 36.1083 30.4483 36.295 31.125C36.4817 31.7783 36.575 32.42 36.575 33.05C36.575 34.17 36.3533 35.2083 35.91 36.165C35.49 37.1217 34.8717 37.9383 34.055 38.615C33.2617 39.2917 32.2817 39.8167 31.115 40.19C29.9717 40.5867 28.665 40.785 27.195 40.785H18.83C18.0833 40.785 17.43 40.5283 16.87 40.015C16.31 39.525 16.0067 38.8717 15.96 38.055C15.9367 37.5417 15.9133 36.7367 15.89 35.64C15.8667 34.52 15.8433 33.2717 15.82 31.895C15.82 30.495 15.82 29.025 15.82 27.485C15.8433 25.945 15.8667 24.4867 15.89 23.11C15.9133 21.71 15.9483 20.4733 15.995 19.4C16.065 18.3267 16.135 17.545 16.205 17.055C16.345 16.1683 16.7067 15.4567 17.29 14.92C17.8967 14.3833 18.55 14.115 19.25 14.115H26.495C29.4117 14.115 31.6983 14.745 33.355 16.005C35.035 17.265 35.875 19.05 35.875 21.36C35.875 21.92 35.7933 22.5033 35.63 23.11C35.4667 23.6933 35.21 24.23 34.86 24.72C34.51 25.21 34.055 25.63 33.495 25.98C32.935 26.33 32.2467 26.5633 31.43 26.68ZM37.619 30.985C37.619 29.5383 37.829 28.1967 38.249 26.96C38.669 25.7 39.2873 24.615 40.104 23.705C40.944 22.795 41.9707 22.0833 43.184 21.57C44.3973 21.0333 45.7857 20.765 47.349 20.765C48.5157 20.765 49.6473 20.9633 50.744 21.36C51.8407 21.7567 52.809 22.3517 53.649 23.145C54.5123 23.915 55.2123 24.895 55.749 26.085C56.2857 27.2517 56.5773 28.6167 56.624 30.18C56.6473 31.2767 56.414 32.1283 55.924 32.735C55.434 33.3183 54.6757 33.61 53.649 33.61H47.174C46.5207 33.61 46.0423 33.365 45.739 32.875C45.4357 32.385 45.284 31.8133 45.284 31.16C45.284 30.5067 45.459 29.9233 45.809 29.41C46.159 28.8733 46.6373 28.605 47.244 28.605H50.569C50.569 28.325 50.5107 28.0217 50.394 27.695C50.3007 27.3683 50.1373 27.0767 49.904 26.82C49.694 26.54 49.3907 26.3183 48.994 26.155C48.5973 25.9683 48.0957 25.875 47.489 25.875C46.299 25.875 45.3657 26.2833 44.689 27.1C44.0123 27.8933 43.674 29.1883 43.674 30.985C43.674 32.7117 44.024 33.9717 44.724 34.765C45.424 35.5583 46.4157 35.99 47.699 36.06C48.329 36.1067 48.994 36.0717 49.694 35.955C50.4173 35.815 51.1173 35.5583 51.794 35.185C52.144 35.0217 52.5057 34.9283 52.879 34.905C53.2523 34.8817 53.6023 34.9283 53.929 35.045C54.2557 35.1617 54.5357 35.36 54.769 35.64C55.0257 35.92 55.2123 36.27 55.329 36.69C55.4457 37.0867 55.4573 37.46 55.364 37.81C55.2707 38.1367 55.1307 38.4283 54.944 38.685C54.7807 38.9417 54.594 39.1517 54.384 39.315C54.174 39.5017 53.999 39.63 53.859 39.7C52.9957 40.2133 51.9923 40.5983 50.849 40.855C49.7057 41.1117 48.539 41.205 47.349 41.135C45.6223 41.0417 44.1407 40.7033 42.904 40.12C41.6673 39.56 40.6523 38.825 39.859 37.915C39.089 37.005 38.5173 35.955 38.144 34.765C37.794 33.575 37.619 32.315 37.619 30.985ZM79.5405 14.115C79.9372 14.115 80.3105 14.185 80.6605 14.325C81.0105 14.465 81.3138 14.6283 81.5705 14.815C81.8505 15.0017 82.0722 15.2 82.2355 15.41C82.4222 15.5967 82.5505 15.7483 82.6205 15.865C82.9472 16.4483 83.3322 17.2417 83.7755 18.245C84.2188 19.2483 84.6855 20.38 85.1755 21.64C85.6888 22.8767 86.2022 24.195 86.7155 25.595C87.2522 26.995 87.7655 28.395 88.2555 29.795C88.7455 31.1717 89.2005 32.49 89.6205 33.75C90.0405 35.01 90.3905 36.1183 90.6705 37.075C90.7638 37.4717 90.7755 37.8683 90.7055 38.265C90.6588 38.6383 90.5422 38.9883 90.3555 39.315C90.1922 39.6417 89.9588 39.9217 89.6555 40.155C89.3755 40.3883 89.0488 40.5517 88.6755 40.645C88.1388 40.785 87.6488 40.82 87.2055 40.75C86.7855 40.68 86.4122 40.54 86.0855 40.33C85.7822 40.1433 85.5255 39.8983 85.3155 39.595C85.1055 39.2917 84.9422 38.9767 84.8255 38.65C84.6155 37.9733 84.3588 37.1333 84.0555 36.13C83.7522 35.1267 83.4255 34.065 83.0755 32.945C82.7255 31.825 82.3638 30.6933 81.9905 29.55C81.6405 28.4067 81.3022 27.345 80.9755 26.365C80.6722 25.385 80.3922 24.545 80.1355 23.845C79.8788 23.1217 79.6922 22.6433 79.5755 22.41C79.4822 22.5967 79.3538 22.9117 79.1905 23.355C79.0505 23.7983 78.8755 24.335 78.6655 24.965C78.4555 25.595 78.2222 26.295 77.9655 27.065C77.7322 27.8117 77.4872 28.605 77.2305 29.445H79.7505C80.0772 29.445 80.3572 29.5383 80.5905 29.725C80.8472 29.8883 81.0572 30.11 81.2205 30.39C81.4072 30.67 81.5355 30.9967 81.6055 31.37C81.6988 31.72 81.7455 32.07 81.7455 32.42C81.7455 32.7233 81.7105 33.05 81.6405 33.4C81.5938 33.7267 81.4888 34.0417 81.3255 34.345C81.1622 34.625 80.9522 34.8583 80.6955 35.045C80.4388 35.2317 80.1122 35.325 79.7155 35.325H75.3755C75.1888 35.9783 75.0022 36.5967 74.8155 37.18C74.6288 37.74 74.4772 38.23 74.3605 38.65C74.2672 38.9767 74.1155 39.2917 73.9055 39.595C73.6955 39.8983 73.4388 40.155 73.1355 40.365C72.8322 40.575 72.4705 40.715 72.0505 40.785C71.6538 40.855 71.1988 40.82 70.6855 40.68C69.7288 40.4467 69.0755 39.9917 68.7255 39.315C68.3988 38.6383 68.3405 37.8917 68.5505 37.075C68.8305 36.1183 69.1805 35.01 69.6005 33.75C70.0205 32.49 70.4755 31.1717 70.9655 29.795C71.4555 28.395 71.9572 26.995 72.4705 25.595C73.0072 24.195 73.5205 22.8767 74.0105 21.64C74.5238 20.38 75.0022 19.2483 75.4455 18.245C75.9122 17.2417 76.3088 16.4483 76.6355 15.865C76.7055 15.7483 76.8222 15.5967 76.9855 15.41C77.1488 15.2 77.3588 15.0017 77.6155 14.815C77.8722 14.6283 78.1638 14.465 78.4905 14.325C78.8172 14.185 79.1672 14.115 79.5405 14.115ZM96.9866 30.215C96.9866 30.6583 96.9866 31.2183 96.9866 31.895C96.9866 32.5717 96.9866 33.2833 96.9866 34.03C96.9866 34.7767 96.9866 35.5117 96.9866 36.235C97.01 36.9583 97.0333 37.6 97.0566 38.16C97.0566 38.51 96.9866 38.8367 96.8466 39.14C96.7066 39.4667 96.5083 39.7467 96.2516 39.98C95.995 40.2367 95.68 40.435 95.3066 40.575C94.9566 40.715 94.56 40.785 94.1166 40.785C93.0666 40.785 92.2966 40.5167 91.8066 39.98C91.34 39.4667 91.0833 38.8833 91.0366 38.23C91.0133 37.74 90.99 37.0983 90.9666 36.305C90.9666 35.5117 90.9666 34.6717 90.9666 33.785C90.9666 32.8983 90.9666 32.035 90.9666 31.195C90.99 30.3317 91.0016 29.62 91.0016 29.06C91.0016 27.87 91.1533 26.785 91.4566 25.805C91.7833 24.8017 92.2616 23.95 92.8916 23.25C93.5216 22.55 94.3033 22.0133 95.2366 21.64C96.1933 21.2433 97.3016 21.045 98.5616 21.045H102.132C102.832 21.045 103.38 21.3483 103.777 21.955C104.197 22.5617 104.407 23.2733 104.407 24.09C104.407 24.8367 104.208 25.5017 103.812 26.085C103.438 26.6683 102.867 26.96 102.097 26.96H100.452C99.4716 26.96 98.6433 27.205 97.9666 27.695C97.3133 28.1617 96.9866 29.0017 96.9866 30.215ZM114.122 41.135C112.582 41.065 111.205 40.75 109.992 40.19C108.802 39.6533 107.798 38.93 106.982 38.02C106.165 37.11 105.547 36.0367 105.127 34.8C104.73 33.54 104.567 32.1633 104.637 30.67C104.683 29.13 104.975 27.7533 105.512 26.54C106.072 25.3033 106.807 24.265 107.717 23.425C108.627 22.5617 109.7 21.9083 110.937 21.465C112.197 21.0217 113.55 20.8 114.997 20.8C115.23 20.8 115.522 20.8117 115.872 20.835C116.222 20.835 116.583 20.8467 116.957 20.87C117.353 20.87 117.727 20.8933 118.077 20.94C118.45 20.9633 118.765 21.01 119.022 21.08C119.815 21.2433 120.387 21.605 120.737 22.165C121.087 22.7017 121.203 23.3783 121.087 24.195C120.97 25.0117 120.667 25.7117 120.177 26.295C119.71 26.855 119.057 27.0767 118.217 26.96C118.03 26.9367 117.785 26.9133 117.482 26.89C117.178 26.8433 116.863 26.8083 116.537 26.785C116.21 26.7617 115.895 26.75 115.592 26.75C115.312 26.7267 115.09 26.715 114.927 26.715C114.273 26.715 113.678 26.8317 113.142 27.065C112.628 27.275 112.185 27.5783 111.812 27.975C111.438 28.3483 111.147 28.7917 110.937 29.305C110.75 29.8183 110.657 30.355 110.657 30.915C110.657 31.405 110.715 31.895 110.832 32.385C110.972 32.875 111.182 33.3183 111.462 33.715C111.742 34.1117 112.103 34.45 112.547 34.73C113.013 34.9867 113.573 35.15 114.227 35.22C114.973 35.29 115.697 35.255 116.397 35.115C117.12 34.9517 117.75 34.7767 118.287 34.59C118.683 34.4733 119.057 34.4383 119.407 34.485C119.78 34.5083 120.118 34.6133 120.422 34.8C120.748 34.9867 121.017 35.2433 121.227 35.57C121.437 35.8733 121.577 36.235 121.647 36.655C121.74 37.0983 121.74 37.495 121.647 37.845C121.577 38.195 121.448 38.51 121.262 38.79C121.098 39.0467 120.9 39.2683 120.667 39.455C120.433 39.665 120.212 39.8283 120.002 39.945C119.255 40.4117 118.345 40.7383 117.272 40.925C116.222 41.1117 115.172 41.1817 114.122 41.135ZM135.025 30.145C135.025 29.6083 134.99 29.1417 134.92 28.745C134.873 28.325 134.756 27.9867 134.57 27.73C134.383 27.45 134.115 27.24 133.765 27.1C133.415 26.96 132.96 26.89 132.4 26.89C131.723 26.89 131.186 26.61 130.79 26.05C130.416 25.49 130.23 24.79 130.23 23.95C130.23 23.53 130.288 23.145 130.405 22.795C130.545 22.445 130.708 22.1417 130.895 21.885C131.105 21.6283 131.326 21.43 131.56 21.29C131.816 21.1267 132.073 21.045 132.33 21.045H134.36C136.67 21.045 138.361 21.7333 139.435 23.11C140.508 24.4867 141.045 26.3767 141.045 28.78C141.045 29.34 141.033 30.075 141.01 30.985C141.01 31.8717 140.998 32.7933 140.975 33.75C140.975 34.6833 140.963 35.5817 140.94 36.445C140.94 37.285 140.94 37.9383 140.94 38.405C140.94 38.5683 140.893 38.79 140.8 39.07C140.73 39.35 140.578 39.6067 140.345 39.84C140.135 40.0967 139.831 40.3183 139.435 40.505C139.061 40.6917 138.56 40.785 137.93 40.785C137.416 40.785 136.961 40.7033 136.565 40.54C136.191 40.4 135.876 40.2133 135.62 39.98C135.386 39.7467 135.211 39.49 135.095 39.21C134.978 38.93 134.92 38.6617 134.92 38.405C134.943 37.845 134.955 37.18 134.955 36.41C134.978 35.64 134.99 34.87 134.99 34.1C135.013 33.3067 135.025 32.56 135.025 31.86C135.025 31.16 135.025 30.5883 135.025 30.145ZM123.545 16.04C123.591 15.7133 123.72 15.4217 123.93 15.165C124.14 14.9083 124.396 14.6983 124.7 14.535C125.003 14.3483 125.341 14.22 125.715 14.15C126.088 14.08 126.45 14.0683 126.8 14.115C127.15 14.1617 127.488 14.255 127.815 14.395C128.165 14.535 128.468 14.7217 128.725 14.955C128.981 15.1883 129.168 15.4683 129.285 15.795C129.425 16.1217 129.471 16.4833 129.425 16.88C129.355 17.6733 129.285 18.63 129.215 19.75C129.168 20.87 129.133 22.0717 129.11 23.355C129.086 24.6383 129.075 25.9683 129.075 27.345C129.075 28.6983 129.086 30.0283 129.11 31.335C129.133 32.6417 129.168 33.8783 129.215 35.045C129.285 36.2117 129.355 37.2383 129.425 38.125C129.471 38.4983 129.425 38.8367 129.285 39.14C129.145 39.4667 128.946 39.7467 128.69 39.98C128.433 40.2133 128.13 40.4 127.78 40.54C127.453 40.68 127.103 40.7617 126.73 40.785C125.89 40.8317 125.155 40.6683 124.525 40.295C123.918 39.945 123.58 39.4083 123.51 38.685C123.44 38.0317 123.37 37.1683 123.3 36.095C123.253 34.9983 123.206 33.785 123.16 32.455C123.136 31.1017 123.113 29.6783 123.09 28.185C123.09 26.6917 123.101 25.2217 123.125 23.775C123.148 22.305 123.195 20.905 123.265 19.575C123.335 18.2217 123.428 17.0433 123.545 16.04ZM150.501 23.74C150.571 26.0267 150.618 28.36 150.641 30.74C150.664 33.0967 150.618 35.6633 150.501 38.44C150.478 38.7667 150.361 39.07 150.151 39.35C149.964 39.6533 149.719 39.91 149.416 40.12C149.113 40.3533 148.763 40.5283 148.366 40.645C147.993 40.7617 147.619 40.8083 147.246 40.785C146.476 40.7383 145.811 40.47 145.251 39.98C144.714 39.5133 144.446 38.9183 144.446 38.195C144.493 36.8883 144.516 35.64 144.516 34.45C144.539 33.26 144.551 32.0933 144.551 30.95C144.551 29.7833 144.539 28.6283 144.516 27.485C144.516 26.3183 144.504 25.1167 144.481 23.88C144.481 23.18 144.738 22.6083 145.251 22.165C145.788 21.7217 146.429 21.465 147.176 21.395C147.573 21.3483 147.969 21.3717 148.366 21.465C148.763 21.5583 149.113 21.6983 149.416 21.885C149.743 22.0717 149.999 22.3283 150.186 22.655C150.396 22.9583 150.501 23.32 150.501 23.74ZM150.536 17.23C150.513 17.65 150.396 18.0117 150.186 18.315C149.999 18.6183 149.754 18.875 149.451 19.085C149.148 19.2717 148.798 19.4117 148.401 19.505C148.004 19.575 147.596 19.5983 147.176 19.575C146.406 19.505 145.776 19.2833 145.286 18.91C144.796 18.5133 144.539 18.035 144.516 17.475L144.481 16.11C144.458 15.7367 144.539 15.41 144.726 15.13C144.913 14.8267 145.146 14.5817 145.426 14.395C145.729 14.2083 146.044 14.0683 146.371 13.975C146.721 13.8583 147.048 13.8 147.351 13.8C148.098 13.8 148.798 13.9633 149.451 14.29C150.128 14.5933 150.489 15.0717 150.536 15.725V17.23ZM162.663 40.785C161.823 40.785 161.134 40.6567 160.598 40.4C160.061 40.1433 159.629 39.7467 159.303 39.21C158.953 38.6733 158.509 37.845 157.973 36.725C157.436 35.5817 156.864 34.31 156.258 32.91C155.674 31.51 155.103 30.0633 154.543 28.57C153.983 27.0533 153.528 25.6417 153.178 24.335C153.038 23.8917 153.014 23.495 153.108 23.145C153.224 22.795 153.399 22.4917 153.633 22.235C153.866 21.955 154.146 21.7217 154.473 21.535C154.799 21.3483 155.114 21.22 155.418 21.15C156.141 20.9633 156.841 20.9867 157.518 21.22C158.218 21.43 158.696 21.92 158.953 22.69C159.163 23.3433 159.384 24.09 159.618 24.93C159.851 25.7467 160.096 26.5867 160.353 27.45C160.609 28.3133 160.866 29.1767 161.123 30.04C161.403 30.88 161.683 31.6617 161.963 32.385C162.149 32.8517 162.371 33.085 162.628 33.085C162.884 33.085 163.106 32.8633 163.293 32.42C163.573 31.6967 163.853 30.915 164.133 30.075C164.436 29.2117 164.728 28.3483 165.008 27.485C165.288 26.6217 165.544 25.7817 165.778 24.965C166.034 24.125 166.244 23.3783 166.408 22.725C166.594 22.0483 167.014 21.57 167.668 21.29C168.344 21.01 169.091 20.9633 169.908 21.15C170.258 21.22 170.596 21.36 170.923 21.57C171.273 21.7567 171.564 22.0017 171.798 22.305C172.031 22.585 172.194 22.9117 172.288 23.285C172.381 23.6583 172.369 24.0667 172.253 24.51C171.833 26.0267 171.343 27.5433 170.783 29.06C170.223 30.5767 169.639 32 169.033 33.33C168.449 34.6367 167.866 35.815 167.283 36.865C166.723 37.8917 166.233 38.685 165.813 39.245C165.509 39.7117 165.089 40.085 164.553 40.365C164.039 40.645 163.409 40.785 162.663 40.785ZM172.191 30.985C172.191 29.5383 172.401 28.1967 172.821 26.96C173.241 25.7 173.86 24.615 174.676 23.705C175.516 22.795 176.543 22.0833 177.756 21.57C178.97 21.0333 180.358 20.765 181.921 20.765C183.088 20.765 184.22 20.9633 185.316 21.36C186.413 21.7567 187.381 22.3517 188.221 23.145C189.085 23.915 189.785 24.895 190.321 26.085C190.858 27.2517 191.15 28.6167 191.196 30.18C191.22 31.2767 190.986 32.1283 190.496 32.735C190.006 33.3183 189.248 33.61 188.221 33.61H181.746C181.093 33.61 180.615 33.365 180.311 32.875C180.008 32.385 179.856 31.8133 179.856 31.16C179.856 30.5067 180.031 29.9233 180.381 29.41C180.731 28.8733 181.21 28.605 181.816 28.605H185.141C185.141 28.325 185.083 28.0217 184.966 27.695C184.873 27.3683 184.71 27.0767 184.476 26.82C184.266 26.54 183.963 26.3183 183.566 26.155C183.17 25.9683 182.668 25.875 182.061 25.875C180.871 25.875 179.938 26.2833 179.261 27.1C178.585 27.8933 178.246 29.1883 178.246 30.985C178.246 32.7117 178.596 33.9717 179.296 34.765C179.996 35.5583 180.988 35.99 182.271 36.06C182.901 36.1067 183.566 36.0717 184.266 35.955C184.99 35.815 185.69 35.5583 186.366 35.185C186.716 35.0217 187.078 34.9283 187.451 34.905C187.825 34.8817 188.175 34.9283 188.501 35.045C188.828 35.1617 189.108 35.36 189.341 35.64C189.598 35.92 189.785 36.27 189.901 36.69C190.018 37.0867 190.03 37.46 189.936 37.81C189.843 38.1367 189.703 38.4283 189.516 38.685C189.353 38.9417 189.166 39.1517 188.956 39.315C188.746 39.5017 188.571 39.63 188.431 39.7C187.568 40.2133 186.565 40.5983 185.421 40.855C184.278 41.1117 183.111 41.205 181.921 41.135C180.195 41.0417 178.713 40.7033 177.476 40.12C176.24 39.56 175.225 38.825 174.431 37.915C173.661 37.005 173.09 35.955 172.716 34.765C172.366 33.575 172.191 32.315 172.191 30.985Z" fill="#007BFF"/>
</g>
<defs>
<clipPath id="clip0_429_7804">
<rect width="200" height="50" fill="white"/>
</clipPath>
</defs>
</svg>
