<svg width="336" height="336" viewBox="0 0 336 336" fill="none" xmlns="http://www.w3.org/2000/svg">
<path d="M168 56.0952C261.622 56.0952 270.5 147.145 270.5 157.777C270.5 168.41 270 178.013 268 186.596C266 195.178 264.5 204.747 256.5 216.721C250.972 224.995 245.553 227.966 237 226.732C228.447 225.497 223.233 219.759 229.702 208.021C244.975 180.307 245.585 167.898 246.196 159.256C246.807 150.615 245.672 143.999 244.975 140.121C243.753 133.331 241.309 126.541 238.865 120.986C236.422 115.43 218.819 76.1302 168 76.1302C116.98 76.1302 94.08 99.5577 94.08 153.701L78.5512 167.898C77.5855 169.75 75.8346 170.958 78.5512 175.306C81.2509 179.627 89.4424 178.621 91.0255 183.33C91.7934 185.615 89.1927 188.886 89.1927 188.886C89.1927 188.886 87.9709 190.12 90.4146 194.441C91.7282 197.126 98.3564 197.527 96.793 204.935C95.2296 212.342 97.0447 212.439 100.5 213.537C104.5 214.808 105.267 224.745 100.5 225.984C84 230.271 75 220.239 70 204.935C65 185.799 65.5 183.405 65.5 165.371C67 101.421 105.492 56.0952 168 56.0952ZM25.6941 160.272C31.152 160.272 35.5765 164.757 35.5765 170.289C35.5764 175.822 31.152 180.307 25.6941 180.307H9.88235C4.4245 180.307 2.8931e-05 175.822 0 170.289C0 164.757 4.42448 160.272 9.88235 160.272H25.6941ZM326.118 160.272C331.576 160.272 336 164.757 336 170.289C336 175.822 331.576 180.307 326.118 180.307H310.306C304.848 180.307 300.424 175.822 300.424 170.289C300.424 164.757 304.848 160.272 310.306 160.272H326.118ZM49.2226 49.8937C53.0818 45.9816 59.339 45.9818 63.1984 49.8937L74.3774 61.2248L74.5554 61.4099C78.2358 65.3344 78.1768 71.5407 74.3778 75.3917C70.5789 79.2427 64.4563 79.303 60.5846 75.5725L60.402 75.3921L49.223 64.0607L49.045 63.8756C45.3647 59.9511 45.4237 53.7447 49.2226 49.8937ZM275.598 75.3761C271.739 79.288 265.481 79.2878 261.622 75.3757C257.763 71.4636 257.763 65.1208 261.623 61.2088L275.598 75.3761ZM272.802 49.8777C276.661 45.9657 282.918 45.9655 286.777 49.8777C290.637 53.7898 290.636 60.1326 286.777 64.0446L275.598 75.3761L261.623 61.2088L272.802 49.8777ZM158.118 26.0447V10.0175C158.118 4.48499 162.542 0 168 0C173.458 0 177.882 4.48499 177.882 10.0175V26.0447C177.882 31.5772 173.458 36.0622 168 36.0622C162.542 36.0622 158.118 31.5772 158.118 26.0447Z" fill="url(#paint0_linear_429_7328)"/>
<path fill-rule="evenodd" clip-rule="evenodd" d="M224.461 231.001H111.746C109.379 230.982 107.033 231.438 104.848 232.342L104.633 232.433C102.416 233.386 100.419 234.782 98.768 236.535L98.6094 236.705C96.9804 238.481 95.736 240.57 94.9528 242.843L94.8787 243.064C94.1011 245.423 93.8351 247.919 94.0986 250.388C94.1036 250.435 94.1089 250.481 94.1145 250.528L94.2076 251.274C95.1952 258.988 97.0302 266.702 101.442 273.834C105.261 280.008 110.636 285.152 117.857 289.557C119.248 301.788 122.037 313.271 129.112 321.826C137.772 332.297 150.88 336.27 167.837 335.986C183.427 336.153 196.45 333.016 205.351 323.023C212.687 314.786 215.775 303.391 217.108 290.29C233.795 281.869 240.075 264.702 241.866 250.148C243.216 239.155 234.144 231.001 224.461 231.001ZM138.452 293.354C139.771 300.956 141.711 305.945 144.442 309.248C147.688 313.172 153.622 316.462 167.633 316.205L167.936 316.204L168.557 316.209C181.498 316.276 187.27 313.514 190.494 309.894C193.238 306.813 195.381 301.801 196.697 293.366L138.452 293.354ZM114.194 250.783C115.026 256.145 116.292 260.127 118.351 263.456C120.434 266.823 123.755 270.202 129.738 273.571L205.989 273.586C214.896 270.107 219.762 261.853 221.7 250.783H114.194Z" fill="url(#paint1_linear_429_7328)"/>
<defs>
<linearGradient id="paint0_linear_429_7328" x1="197" y1="27.8729" x2="197" y2="257.736" gradientUnits="userSpaceOnUse">
<stop stop-color="#82CBFF"/>
<stop offset="1" stop-color="#007BFF"/>
</linearGradient>
<linearGradient id="paint1_linear_429_7328" x1="168" y1="231" x2="168" y2="336" gradientUnits="userSpaceOnUse">
<stop stop-color="#82CBFF"/>
<stop offset="1" stop-color="#007BFF"/>
</linearGradient>
</defs>
</svg>
