<svg width="247" height="62" viewBox="0 0 247 62" fill="none" xmlns="http://www.w3.org/2000/svg">
<g clip-path="url(#clip0_551_985)">
<path d="M25.351 25.9005C27.2253 25.9005 28.5194 25.6625 29.2334 25.1865C29.9474 24.6807 30.3044 23.9965 30.3044 23.1337C30.3044 22.3602 29.992 21.7652 29.3673 21.3487C28.7723 20.9322 27.7161 20.724 26.1989 20.724H21.2455C20.9778 20.724 20.7695 20.7835 20.6208 20.9025C20.5018 20.9917 20.3976 21.1107 20.3084 21.2595C20.2489 21.4082 20.2043 21.557 20.1745 21.7057C20.1745 21.8247 20.1745 21.9289 20.1745 22.0181C20.0258 24.9634 19.9365 27.8194 19.9068 30.5861C19.877 33.3231 19.8919 35.9262 19.9514 38.3955C19.9514 38.4847 19.9514 38.6186 19.9514 38.7971C19.9811 38.9459 20.0258 39.1095 20.0853 39.288C20.1745 39.4367 20.2935 39.5706 20.4423 39.6896C20.6208 39.7789 20.8439 39.8235 21.1116 39.8235H26.8683C28.445 39.8235 29.5606 39.5557 30.2151 39.0202C30.8696 38.455 31.1969 37.6666 31.1969 36.6551C31.1969 35.6734 30.7804 34.885 29.9474 34.29C29.1144 33.6652 27.6269 33.3529 25.4849 33.3529H24.0569C23.6404 33.3529 23.2685 33.2339 22.9413 32.9959C22.6438 32.7579 22.376 32.4455 22.138 32.0587C21.9298 31.672 21.7661 31.2555 21.6471 30.8092C21.5579 30.363 21.5133 29.9465 21.5133 29.5597C21.5133 29.1432 21.5728 28.7267 21.6918 28.3102C21.8108 27.864 21.9744 27.4624 22.1826 27.1054C22.4206 26.7484 22.6884 26.4657 22.9859 26.2575C23.3131 26.0195 23.6701 25.9005 24.0569 25.9005H25.351ZM32.2233 29.292C33.4133 29.5895 34.4248 30.0357 35.2578 30.6307C36.0908 31.196 36.7601 31.8505 37.2659 32.5942C37.8014 33.3082 38.1881 34.0966 38.4261 34.9594C38.6641 35.7924 38.7831 36.6105 38.7831 37.4137C38.7831 38.8417 38.5005 40.1656 37.9353 41.3854C37.3998 42.6051 36.6114 43.6464 35.5701 44.5091C34.5586 45.3719 33.3091 46.0413 31.8216 46.5173C30.3639 47.023 28.6979 47.2759 26.8236 47.2759H16.1583C15.2063 47.2759 14.3733 46.9486 13.6593 46.2941C12.9453 45.6694 12.5585 44.8364 12.499 43.7951C12.4693 43.1406 12.4395 42.1142 12.4098 40.716C12.38 39.288 12.3503 37.6964 12.3205 35.9411C12.3205 34.1561 12.3205 32.2819 12.3205 30.3184C12.3503 28.3549 12.38 26.4955 12.4098 24.7402C12.4395 22.9552 12.4841 21.3785 12.5436 20.01C12.6329 18.6415 12.7221 17.6449 12.8114 17.0201C12.9899 15.8896 13.451 14.9822 14.1948 14.298C14.9683 13.6137 15.8013 13.2716 16.6938 13.2716H25.9311C29.6499 13.2716 32.5654 14.0749 34.6776 15.6814C36.8196 17.2879 37.8906 19.5637 37.8906 22.509C37.8906 23.223 37.7865 23.9667 37.5783 24.7402C37.37 25.484 37.0428 26.1682 36.5965 26.793C36.1503 27.4177 35.5701 27.9532 34.8561 28.3995C34.1421 28.8457 33.2645 29.1432 32.2233 29.292ZM40.1142 34.7809C40.1142 32.9364 40.382 31.2257 40.9175 29.649C41.453 28.0425 42.2413 26.6591 43.2826 25.4989C44.3536 24.3386 45.6626 23.4312 47.2096 22.7767C48.7566 22.0925 50.5267 21.7504 52.52 21.7504C54.0075 21.7504 55.4503 22.0032 56.8486 22.509C58.2468 23.0147 59.4815 23.7734 60.5525 24.7849C61.6532 25.7666 62.5457 27.0161 63.23 28.5334C63.9142 30.0209 64.2861 31.7612 64.3456 33.7545C64.3753 35.1527 64.0778 36.2386 63.4531 37.0121C62.8283 37.7559 61.8615 38.1277 60.5525 38.1277H52.2968C51.4638 38.1277 50.854 37.8154 50.4672 37.1906C50.0805 36.5659 49.8871 35.837 49.8871 35.004C49.8871 34.171 50.1102 33.4272 50.5565 32.7727C51.0027 32.0885 51.6126 31.7464 52.3861 31.7464H56.6255C56.6255 31.3894 56.5511 31.0026 56.4023 30.5861C56.2833 30.1696 56.0751 29.7977 55.7776 29.4705C55.5098 29.1135 55.1231 28.8309 54.6173 28.6226C54.1116 28.3846 53.472 28.2656 52.6985 28.2656C51.1812 28.2656 49.9912 28.7862 49.1285 29.8275C48.2657 30.839 47.8343 32.4901 47.8343 34.7809C47.8343 36.9824 48.2806 38.5889 49.1731 39.6004C50.0656 40.6119 51.33 41.1622 52.9662 41.2515C53.7695 41.311 54.6173 41.2664 55.5098 41.1176C56.4321 40.9391 57.3246 40.6119 58.1873 40.1359C58.6336 39.9276 59.0947 39.8086 59.5707 39.7789C60.0467 39.7491 60.493 39.8086 60.9095 39.9574C61.326 40.1061 61.683 40.359 61.9805 40.716C62.3077 41.073 62.5457 41.5192 62.6945 42.0548C62.8432 42.5605 62.8581 43.0365 62.7391 43.4827C62.6201 43.8992 62.4416 44.2711 62.2036 44.5984C61.9953 44.9256 61.7573 45.1934 61.4896 45.4016C61.2218 45.6396 60.9987 45.8033 60.8202 45.8925C59.7195 46.547 58.4402 47.0379 56.9825 47.3651C55.5247 47.6924 54.0372 47.8114 52.52 47.7221C50.3185 47.6031 48.4293 47.1718 46.8526 46.428C45.2758 45.714 43.9817 44.7769 42.9702 43.6166C41.9885 42.4564 41.2596 41.1176 40.7836 39.6004C40.3373 38.0831 40.1142 36.4766 40.1142 34.7809ZM93.5641 13.2716C94.0699 13.2716 94.5459 13.3609 94.9921 13.5394C95.4384 13.7179 95.8251 13.9261 96.1524 14.1641C96.5094 14.4021 96.792 14.655 97.0003 14.9227C97.2383 15.1607 97.4019 15.3541 97.4911 15.5029C97.9076 16.2466 98.3985 17.2581 98.9638 18.5374C99.529 19.8166 100.124 21.2595 100.749 22.866C101.403 24.4427 102.058 26.1236 102.712 27.9086C103.397 29.6936 104.051 31.4786 104.676 33.2636C105.301 35.0189 105.881 36.6997 106.416 38.3062C106.952 39.9127 107.398 41.3259 107.755 42.5456C107.874 43.0514 107.889 43.5571 107.8 44.0629C107.74 44.5389 107.591 44.9851 107.353 45.4016C107.145 45.8181 106.848 46.1751 106.461 46.4726C106.104 46.7701 105.687 46.9784 105.211 47.0974C104.527 47.2759 103.902 47.3205 103.337 47.2313C102.802 47.142 102.326 46.9635 101.909 46.6958C101.522 46.4578 101.195 46.1454 100.927 45.7586C100.66 45.3719 100.451 44.9702 100.303 44.5537C100.035 43.691 99.7075 42.62 99.3208 41.3407C98.934 40.0615 98.5175 38.7079 98.0713 37.2799C97.625 35.8519 97.1639 34.409 96.6879 32.9512C96.2416 31.4935 95.8103 30.1399 95.3938 28.8904C95.007 27.6409 94.65 26.5699 94.3228 25.6774C93.9955 24.7551 93.7575 24.1452 93.6088 23.8477C93.4898 24.0857 93.3261 24.4874 93.1179 25.0526C92.9394 25.6179 92.7163 26.3021 92.4485 27.1054C92.1808 27.9086 91.8833 28.8011 91.556 29.7829C91.2585 30.7349 90.9461 31.7464 90.6189 32.8174H93.8319C94.2484 32.8174 94.6054 32.9364 94.9029 33.1744C95.2301 33.3826 95.4979 33.6652 95.7061 34.0222C95.9441 34.3792 96.1078 34.7957 96.197 35.2717C96.316 35.718 96.3755 36.1642 96.3755 36.6105C96.3755 36.9972 96.3309 37.4137 96.2416 37.86C96.1821 38.2765 96.0483 38.6781 95.84 39.0649C95.6318 39.4219 95.364 39.7194 95.0368 39.9574C94.7095 40.1954 94.293 40.3144 93.7873 40.3144H88.2538C88.0158 41.1474 87.7778 41.9357 87.5398 42.6795C87.3018 43.3935 87.1084 44.0182 86.9596 44.5537C86.8406 44.9702 86.6473 45.3719 86.3795 45.7586C86.1118 46.1454 85.7845 46.4726 85.3978 46.7404C85.011 47.0081 84.5499 47.1866 84.0144 47.2759C83.5086 47.3651 82.9285 47.3205 82.274 47.142C81.0543 46.8445 80.2213 46.2644 79.775 45.4016C79.3585 44.5389 79.2841 43.5869 79.5519 42.5456C79.9089 41.3259 80.3551 39.9127 80.8906 38.3062C81.4261 36.6997 82.0063 35.0189 82.631 33.2636C83.2558 31.4786 83.8954 29.6936 84.5499 27.9086C85.2341 26.1236 85.8886 24.4427 86.5134 22.866C87.1679 21.2595 87.7778 19.8166 88.343 18.5374C88.938 17.2581 89.4438 16.2466 89.8603 15.5029C89.9495 15.3541 90.0983 15.1607 90.3065 14.9227C90.5148 14.655 90.7825 14.4021 91.1098 14.1641C91.437 13.9261 91.8089 13.7179 92.2254 13.5394C92.6419 13.3609 93.0881 13.2716 93.5641 13.2716ZM115.808 33.7991C115.808 34.3644 115.808 35.0784 115.808 35.9411C115.808 36.8039 115.808 37.7112 115.808 38.6632C115.808 39.6152 115.808 40.5524 115.808 41.4746C115.838 42.3969 115.867 43.215 115.897 43.929C115.897 44.3752 115.808 44.7917 115.629 45.1785C115.451 45.595 115.198 45.952 114.871 46.2495C114.544 46.5768 114.142 46.8296 113.666 47.0081C113.22 47.1866 112.714 47.2759 112.149 47.2759C110.81 47.2759 109.828 46.9338 109.203 46.2495C108.608 45.595 108.281 44.8512 108.222 44.0182C108.192 43.3935 108.162 42.5754 108.132 41.5639C108.132 40.5524 108.132 39.4814 108.132 38.3509C108.132 37.2204 108.132 36.1196 108.132 35.0486C108.162 33.9479 108.177 33.0405 108.177 32.3265C108.177 30.8092 108.37 29.4259 108.757 28.1764C109.174 26.8971 109.784 25.8112 110.587 24.9187C111.39 24.0262 112.387 23.342 113.577 22.866C114.796 22.3602 116.21 22.1074 117.816 22.1074H122.368C123.26 22.1074 123.959 22.4941 124.465 23.2676C125.001 24.0411 125.268 24.9485 125.268 25.9897C125.268 26.9417 125.016 27.7896 124.51 28.5334C124.034 29.2771 123.305 29.649 122.323 29.649H120.226C118.976 29.649 117.92 29.9614 117.057 30.5861C116.224 31.1811 115.808 32.2521 115.808 33.7991ZM137.655 47.7221C135.692 47.6329 133.936 47.2313 132.389 46.5173C130.872 45.833 129.593 44.9108 128.552 43.7505C127.51 42.5902 126.722 41.2217 126.186 39.645C125.681 38.0385 125.472 36.2832 125.562 34.3792C125.621 32.4157 125.993 30.6605 126.677 29.1135C127.391 27.5367 128.328 26.2129 129.489 25.1419C130.649 24.0411 132.017 23.2081 133.594 22.6429C135.201 22.0776 136.926 21.795 138.771 21.795C139.068 21.795 139.44 21.8099 139.886 21.8396C140.333 21.8396 140.794 21.8545 141.27 21.8842C141.775 21.8842 142.251 21.914 142.698 21.9735C143.174 22.0032 143.575 22.0627 143.903 22.152C144.914 22.3602 145.643 22.8214 146.089 23.5354C146.535 24.2196 146.684 25.0824 146.535 26.1236C146.387 27.1649 146 28.0574 145.375 28.8011C144.78 29.5151 143.947 29.7977 142.876 29.649C142.638 29.6192 142.326 29.5895 141.939 29.5597C141.552 29.5002 141.151 29.4556 140.734 29.4259C140.318 29.3961 139.916 29.3812 139.529 29.3812C139.172 29.3515 138.89 29.3366 138.681 29.3366C137.848 29.3366 137.09 29.4854 136.406 29.7829C135.751 30.0506 135.186 30.4374 134.71 30.9431C134.234 31.4191 133.862 31.9844 133.594 32.6389C133.356 33.2934 133.237 33.9776 133.237 34.6916C133.237 35.3164 133.312 35.9411 133.46 36.5659C133.639 37.1906 133.907 37.7559 134.264 38.2616C134.621 38.7674 135.082 39.1987 135.647 39.5557C136.242 39.883 136.956 40.0912 137.789 40.1805C138.741 40.2697 139.663 40.2251 140.556 40.0466C141.478 39.8384 142.281 39.6152 142.965 39.3772C143.471 39.2285 143.947 39.1839 144.393 39.2434C144.869 39.2731 145.301 39.407 145.688 39.645C146.104 39.883 146.446 40.2102 146.714 40.6267C146.982 41.0135 147.16 41.4746 147.249 42.0101C147.368 42.5754 147.368 43.0811 147.249 43.5274C147.16 43.9736 146.997 44.3752 146.759 44.7322C146.55 45.0595 146.297 45.3421 146 45.5801C145.702 45.8479 145.42 46.0561 145.152 46.2049C144.2 46.7999 143.04 47.2164 141.671 47.4544C140.333 47.6924 138.994 47.7816 137.655 47.7221ZM164.306 33.7099C164.306 33.0256 164.262 32.4306 164.172 31.9249C164.113 31.3894 163.964 30.958 163.726 30.6307C163.488 30.2737 163.146 30.006 162.7 29.8275C162.254 29.649 161.673 29.5597 160.959 29.5597C160.097 29.5597 159.412 29.2027 158.907 28.4887C158.431 27.7747 158.193 26.8822 158.193 25.8112C158.193 25.2757 158.267 24.7849 158.416 24.3386C158.594 23.8924 158.803 23.5056 159.041 23.1784C159.308 22.8511 159.591 22.5982 159.888 22.4197C160.216 22.2115 160.543 22.1074 160.87 22.1074H163.458C166.404 22.1074 168.561 22.985 169.929 24.7402C171.298 26.4955 171.982 28.9052 171.982 31.9695C171.982 32.6835 171.967 33.6206 171.937 34.7809C171.937 35.9114 171.922 37.0865 171.893 38.3062C171.893 39.4962 171.878 40.6416 171.848 41.7424C171.848 42.8134 171.848 43.6464 171.848 44.2414C171.848 44.4496 171.788 44.7322 171.669 45.0893C171.58 45.4463 171.387 45.7735 171.089 46.071C170.822 46.3983 170.435 46.6809 169.929 46.9189C169.453 47.1569 168.813 47.2759 168.01 47.2759C167.356 47.2759 166.776 47.1718 166.27 46.9635C165.794 46.785 165.392 46.547 165.065 46.2495C164.767 45.952 164.544 45.6248 164.396 45.2678C164.247 44.9107 164.172 44.5686 164.172 44.2414C164.202 43.5274 164.217 42.6795 164.217 41.6977C164.247 40.716 164.262 39.7342 164.262 38.7525C164.291 37.741 164.306 36.789 164.306 35.8965C164.306 35.004 164.306 34.2751 164.306 33.7099ZM149.669 15.726C149.729 15.3095 149.892 14.9376 150.16 14.6104C150.428 14.2831 150.755 14.0154 151.142 13.8071C151.529 13.5691 151.96 13.4055 152.436 13.3162C152.912 13.227 153.373 13.2121 153.819 13.2716C154.266 13.3311 154.697 13.4501 155.114 13.6286C155.56 13.8071 155.947 14.0451 156.274 14.3426C156.601 14.6401 156.839 14.9971 156.988 15.4136C157.166 15.8301 157.226 16.2912 157.166 16.797C157.077 17.8085 156.988 19.0282 156.899 20.4562C156.839 21.8842 156.794 23.4164 156.765 25.0526C156.735 26.6889 156.72 28.3846 156.72 30.1399C156.72 31.8654 156.735 33.5611 156.765 35.2271C156.794 36.8931 156.839 38.4699 156.899 39.9574C156.988 41.4449 157.077 42.7539 157.166 43.8844C157.226 44.3604 157.166 44.7917 156.988 45.1785C156.809 45.595 156.556 45.952 156.229 46.2495C155.902 46.547 155.515 46.785 155.069 46.9635C154.652 47.142 154.206 47.2461 153.73 47.2759C152.659 47.3354 151.722 47.1271 150.919 46.6511C150.145 46.2049 149.714 45.5206 149.625 44.5984C149.535 43.7654 149.446 42.6646 149.357 41.2961C149.297 39.8979 149.238 38.3509 149.178 36.6551C149.149 34.9296 149.119 33.1149 149.089 31.2109C149.089 29.3069 149.104 27.4326 149.134 25.5881C149.164 23.7139 149.223 21.9289 149.312 20.2331C149.402 18.5076 149.521 17.0052 149.669 15.726ZM184.039 25.5435C184.128 28.459 184.188 31.434 184.217 34.4685C184.247 37.4732 184.188 40.7457 184.039 44.286C184.009 44.7025 183.86 45.0893 183.593 45.4463C183.355 45.833 183.042 46.1603 182.656 46.428C182.269 46.7255 181.823 46.9486 181.317 47.0974C180.841 47.2461 180.365 47.3056 179.889 47.2759C178.907 47.2164 178.059 46.8743 177.345 46.2495C176.661 45.6545 176.319 44.8959 176.319 43.9736C176.378 42.3076 176.408 40.716 176.408 39.1987C176.438 37.6815 176.453 36.194 176.453 34.7362C176.453 33.2487 176.438 31.7761 176.408 30.3184C176.408 28.8309 176.393 27.2987 176.363 25.722C176.363 24.8295 176.691 24.1006 177.345 23.5354C178.029 22.9701 178.848 22.6429 179.8 22.5536C180.305 22.4941 180.811 22.5239 181.317 22.6429C181.823 22.7619 182.269 22.9404 182.656 23.1784C183.072 23.4164 183.399 23.7436 183.637 24.1601C183.905 24.5469 184.039 25.008 184.039 25.5435ZM184.084 17.2432C184.054 17.7787 183.905 18.2399 183.637 18.6266C183.399 19.0134 183.087 19.3406 182.7 19.6084C182.313 19.8464 181.867 20.0249 181.361 20.1439C180.856 20.2331 180.335 20.2629 179.8 20.2331C178.818 20.1439 178.015 19.8612 177.39 19.3852C176.765 18.8795 176.438 18.2696 176.408 17.5556L176.363 15.8152C176.334 15.3392 176.438 14.9227 176.676 14.5657C176.914 14.179 177.211 13.8666 177.568 13.6286C177.955 13.3906 178.357 13.2121 178.773 13.0931C179.219 12.9444 179.636 12.87 180.023 12.87C180.975 12.87 181.867 13.0782 182.7 13.4947C183.563 13.8815 184.024 14.4914 184.084 15.3244V17.2432ZM199.545 47.2759C198.474 47.2759 197.596 47.1123 196.912 46.785C196.228 46.4578 195.678 45.952 195.261 45.2678C194.815 44.5835 194.25 43.5274 193.565 42.0994C192.881 40.6416 192.152 39.0202 191.379 37.2352C190.635 35.4502 189.906 33.6057 189.192 31.7017C188.478 29.768 187.898 27.9681 187.452 26.3021C187.273 25.7369 187.243 25.2311 187.362 24.7849C187.511 24.3386 187.734 23.9519 188.032 23.6246C188.329 23.2676 188.686 22.9701 189.103 22.7321C189.519 22.4941 189.921 22.3305 190.308 22.2412C191.23 22.0032 192.122 22.033 192.985 22.3305C193.878 22.5982 194.488 23.223 194.815 24.2047C195.083 25.0377 195.365 25.9897 195.663 27.0607C195.96 28.102 196.273 29.173 196.6 30.2737C196.927 31.3745 197.254 32.4752 197.582 33.576C197.939 34.647 198.296 35.6436 198.653 36.5659C198.891 37.1609 199.173 37.4584 199.5 37.4584C199.828 37.4584 200.11 37.1757 200.348 36.6105C200.705 35.6882 201.062 34.6916 201.419 33.6206C201.806 32.5199 202.178 31.4191 202.535 30.3184C202.892 29.2176 203.219 28.1466 203.517 27.1054C203.844 26.0344 204.112 25.0824 204.32 24.2494C204.558 23.3866 205.093 22.7767 205.926 22.4197C206.789 22.0627 207.741 22.0032 208.782 22.2412C209.229 22.3305 209.66 22.509 210.077 22.7767C210.523 23.0147 210.895 23.3271 211.192 23.7139C211.49 24.0709 211.698 24.4874 211.817 24.9634C211.936 25.4394 211.921 25.96 211.772 26.5252C211.237 28.459 210.612 30.3927 209.898 32.3265C209.184 34.2602 208.44 36.075 207.667 37.7707C206.923 39.4367 206.179 40.9391 205.436 42.2779C204.722 43.5869 204.097 44.5984 203.561 45.3124C203.175 45.9074 202.639 46.3834 201.955 46.7404C201.3 47.0974 200.497 47.2759 199.545 47.2759ZM211.694 34.7809C211.694 32.9364 211.962 31.2257 212.497 29.649C213.033 28.0425 213.821 26.6591 214.862 25.4989C215.933 24.3386 217.242 23.4312 218.789 22.7767C220.336 22.0925 222.106 21.7504 224.1 21.7504C225.587 21.7504 227.03 22.0032 228.428 22.509C229.826 23.0147 231.061 23.7734 232.132 24.7849C233.233 25.7666 234.125 27.0161 234.81 28.5334C235.494 30.0209 235.866 31.7612 235.925 33.7545C235.955 35.1527 235.657 36.2386 235.033 37.0121C234.408 37.7559 233.441 38.1277 232.132 38.1277H223.876C223.043 38.1277 222.434 37.8154 222.047 37.1906C221.66 36.5659 221.467 35.837 221.467 35.004C221.467 34.171 221.69 33.4272 222.136 32.7727C222.582 32.0885 223.192 31.7464 223.966 31.7464H228.205C228.205 31.3894 228.131 31.0026 227.982 30.5861C227.863 30.1696 227.655 29.7977 227.357 29.4705C227.089 29.1135 226.703 28.8309 226.197 28.6226C225.691 28.3846 225.052 28.2656 224.278 28.2656C222.761 28.2656 221.571 28.7862 220.708 29.8275C219.845 30.839 219.414 32.4901 219.414 34.7809C219.414 36.9824 219.86 38.5889 220.753 39.6004C221.645 40.6119 222.91 41.1622 224.546 41.2515C225.349 41.311 226.197 41.2664 227.089 41.1176C228.012 40.9391 228.904 40.6119 229.767 40.1359C230.213 39.9276 230.674 39.8086 231.15 39.7789C231.626 39.7491 232.073 39.8086 232.489 39.9574C232.906 40.1061 233.263 40.359 233.56 40.716C233.887 41.073 234.125 41.5192 234.274 42.0548C234.423 42.5605 234.438 43.0365 234.319 43.4827C234.2 43.8992 234.021 44.2711 233.783 44.5984C233.575 44.9256 233.337 45.1934 233.069 45.4016C232.801 45.6396 232.578 45.8033 232.4 45.8925C231.299 46.547 230.02 47.0379 228.562 47.3651C227.104 47.6924 225.617 47.8114 224.1 47.7221C221.898 47.6031 220.009 47.1718 218.432 46.428C216.855 45.714 215.561 44.7769 214.55 43.6166C213.568 42.4564 212.839 41.1176 212.363 39.6004C211.917 38.0831 211.694 36.4766 211.694 34.7809Z" fill="#007BFF"/>
</g>
<defs>
<clipPath id="clip0_551_985">
<rect width="247" height="61.75" fill="white"/>
</clipPath>
</defs>
</svg>
