<svg width="400" height="467" viewBox="0 0 400 467" fill="none" xmlns="http://www.w3.org/2000/svg">
<path d="M211.765 25.2868C211.765 21.7159 210.587 18.8509 208.231 16.6918C205.876 14.5326 202.752 13.4531 198.862 13.4531C196.463 13.4531 194.292 13.9729 192.35 15.0126C190.408 16.0523 188.732 17.5671 187.323 19.5568C185.999 21.4668 184.2 22.5679 181.923 22.8603C179.647 23.1526 177.683 22.5497 176.032 21.0516C174.874 19.972 174.234 18.6433 174.112 17.0655C173.989 15.4876 174.381 13.9929 175.288 12.5811C177.935 8.59502 181.306 5.50247 185.402 3.30348C189.498 1.10448 193.985 0.00332175 198.862 0C206.885 0 213.399 2.2837 218.405 6.8511C223.411 11.4185 225.912 17.3977 225.909 24.7885C225.909 28.5255 225.123 31.8888 223.552 34.8783C221.98 37.8679 219.085 41.3973 214.867 45.4664C211.806 48.3729 209.738 50.6367 208.663 52.2577C207.588 53.8787 206.885 55.7256 206.554 57.7984C206.223 59.7915 205.374 61.4523 204.008 62.781C202.642 64.1097 201.009 64.7741 199.11 64.7741C197.211 64.7741 195.578 64.1313 194.211 62.8458C192.845 61.5603 192.162 59.9609 192.162 58.0475C192.162 54.8088 192.865 51.8409 194.271 49.1436C195.677 46.4463 198.034 43.6013 201.343 40.6084C205.561 36.8714 208.354 33.9865 209.72 31.9535C211.087 29.9206 211.768 27.6984 211.765 25.2868Z" fill="#82CBFF"/>
<path d="M201.75 71.9658C201.158 69.3321 197.454 69.3503 196.885 71.9871L196.864 72.0995L196.816 72.3152C196.469 73.8845 195.672 75.3143 194.524 76.4242C193.377 77.5341 191.931 78.2744 190.37 78.5516C187.663 79.0316 187.663 82.9684 190.37 83.4484C191.937 83.7263 193.388 84.4708 194.537 85.5872C195.687 86.7036 196.483 88.1416 196.825 89.7183L196.885 90.0129C197.457 92.6497 201.158 92.6679 201.75 90.0342L201.828 89.6909C202.181 88.1183 202.984 86.6866 204.137 85.5763C205.29 84.466 206.741 83.7266 208.308 83.4514C211.017 82.9745 211.017 79.0255 208.308 78.5486C206.75 78.2748 205.306 77.5422 204.156 76.4419C203.006 75.3415 202.201 73.9222 201.84 72.3607L201.78 72.0995L201.75 71.9658Z" fill="#82CBFF"/>
<g filter="url(#filter0_f_495_2502)">
<path d="M172.855 398.428C140.055 405.628 111.355 391.429 119.353 380.929C121.353 373.929 138.154 360.629 189.355 363.429C198.555 355.429 230.521 349.095 245.355 346.928C281.355 342.928 342.855 351.429 333.855 380.93C333.855 401.428 258.054 426.428 172.855 398.428Z" stroke="#262626"/>
</g>
<path d="M155.019 251.65C176.437 266.316 199.695 260.986 215.616 250.769C230.169 241.431 231.271 233.699 224.498 227.122C219.418 222.189 213.556 222.399 208.821 227.275C198.699 237.698 215.067 253.594 222.969 261.268M234.649 328.981C219.895 308.733 223.708 286.227 232.754 270.106M232.754 270.106C233.081 269.524 233.415 268.949 233.754 268.384C242.663 253.564 250.359 252.236 257.132 258.814C262.212 263.747 262.173 269.612 257.438 274.489C250.556 281.575 240.787 276.496 232.754 270.106ZM232.754 270.106C228.972 267.098 225.574 263.799 223.045 261.342" stroke="#7B7B7B" stroke-width="4.5" stroke-linecap="round"/>
<path d="M140.671 237.714C141.132 220.737 139.399 189.084 175.899 156.228C220.221 116.331 286.354 117.129 331.652 168.09M250.412 342.894C264.553 342.687 288.958 343.108 323.858 311.764C366.737 273.254 358.424 209.422 342.497 184.197" stroke="#7B7B7B" stroke-width="5.5" stroke-linecap="round"/>
<circle cx="330.383" cy="250.496" r="10" transform="rotate(44.1611 330.383 250.496)" fill="#D60000" fill-opacity="0.3"/>
<path d="M120.27 365.661C100.296 346.264 110.296 325.308 117.793 317.256L127.54 330.903L140.671 343.655L154.083 356.68L168.727 366.72C160.894 374.446 140.136 384.954 119.77 365.176" stroke="#7B7B7B" stroke-width="4.5"/>
<path d="M180.13 305.31C180.13 305.31 166.351 291.047 157.866 281.592C151.714 274.736 147.648 265.622 145.095 260.356C143.907 257.905 142.534 254.382 140.719 251.227C138.904 248.072 136.25 245.483 133.216 245.325C126.176 245.171 121.62 251.26 120.222 254.323C118.91 257.045 119.546 259.508 119.38 261.87M142.105 345.262C137.319 340.382 126.377 328.874 120.9 321.882C114.054 313.143 115.068 309.945 114.678 307.476C114.289 305.006 115.272 299.688 118.027 294.698C118.333 294.143 118.568 293.607 118.741 293.087M119.38 261.87C119.315 262.803 119.124 263.721 118.638 264.633C118.206 265.443 116.893 268.515 115.52 271.363C114.147 274.212 113.154 278.823 115.371 282.361C117.509 285.771 120.122 288.923 118.741 293.087M119.38 261.87C127.071 282.581 145.528 303.767 164.107 321.809M118.741 293.087C121.883 299.159 132.918 315.915 151.915 334.364M179.525 304.722C179.525 304.722 194.185 318.077 203.884 326.282C210.917 332.231 220.147 336.029 225.485 338.425C227.97 339.541 231.532 340.811 234.738 342.533C237.945 344.255 240.611 346.831 240.857 349.86C241.217 356.892 235.265 361.624 232.243 363.112C229.561 364.502 227.081 363.939 224.725 364.174M140.703 343.901C145.721 348.542 157.545 359.142 164.694 364.412C173.63 370.999 176.796 369.892 179.276 370.209C181.756 370.526 187.043 369.388 191.951 366.488C192.496 366.165 193.025 365.915 193.54 365.727M224.725 364.174C223.794 364.267 222.882 364.485 221.984 364.997C221.188 365.452 218.156 366.855 215.348 368.31C212.541 369.766 207.961 370.894 204.36 368.781C200.889 366.744 197.662 364.224 193.54 365.727M224.725 364.174C203.797 357.093 182.081 339.264 163.501 321.222M193.54 365.727C187.379 362.764 170.307 352.225 151.31 333.776" stroke="#7B7B7B" stroke-width="5" stroke-linejoin="round"/>
<path d="M63.1687 407.075C62.8844 393.84 65.71 384.102 69.0226 377.664C69.575 376.592 70.1124 373.725 67.8427 370.84C65.0057 367.234 57.2805 360.121 54.2494 357.49C51.2182 354.859 45.3531 351.157 39.4008 355.548C34.639 359.061 35.0833 365.333 35.9007 368.031C30.9007 368.657 27.2013 368.489 21.7349 370.949C10.0211 376.221 6.73108 394.666 15.2424 405.484C23.7536 416.302 40.7374 418.099 48.9492 417.931C64.374 417.616 63.2492 410.823 63.1687 407.075Z" stroke="#7B7B7B" stroke-width="5" stroke-linejoin="round"/>
<path d="M257.355 394.611C267.358 403.283 276.656 407.328 283.725 408.89C284.904 409.15 287.453 410.567 288.223 414.156C289.186 418.642 289.727 429.129 289.815 433.142C289.904 437.155 289.007 444.032 281.827 445.808C276.082 447.229 271.539 442.881 269.986 440.53C266.31 443.977 264.077 446.931 258.693 449.566C247.155 455.213 230.861 445.966 227.972 432.507C225.083 419.049 234.547 404.832 239.92 398.62C250.014 386.952 254.523 392.156 257.355 394.611Z" stroke="#7B7B7B" stroke-width="5" stroke-linejoin="round"/>
<defs>
<filter id="filter0_f_495_2502" x="97.5" y="325.501" width="257.742" height="105.91" filterUnits="userSpaceOnUse" color-interpolation-filters="sRGB">
<feFlood flood-opacity="0" result="BackgroundImageFix"/>
<feBlend mode="normal" in="SourceGraphic" in2="BackgroundImageFix" result="shape"/>
<feGaussianBlur stdDeviation="10" result="effect1_foregroundBlur_495_2502"/>
</filter>
</defs>
</svg>
